<?xml version="1.0" standalone="no"?>
<!DOCTYPE svg PUBLIC "-//W3C//DTD SVG 20010904//EN"
 "http://www.w3.org/TR/2001/REC-SVG-20010904/DTD/svg10.dtd">
<svg version="1.0" xmlns="http://www.w3.org/2000/svg"
 width="1920.000000pt" height="1280.000000pt" viewBox="0 0 1920.000000 1280.000000"
 preserveAspectRatio="xMidYMid meet">

<g transform="translate(0.000000,1280.000000) scale(0.100000,-0.100000)"
fill="#000000" stroke="none">
<path d="M0 6400 l0 -6400 9600 0 9600 0 0 6400 0 6400 -475 0 c-310 0 -475
-3 -475 -10 0 -5 -8 -10 -17 -10 -15 0 -16 2 -3 10 10 6 -13 9 -68 8 -63 0
-82 -3 -82 -14 0 -8 10 -14 24 -14 36 0 40 -15 8 -29 -23 -11 -24 -14 -10 -22
16 -9 48 -3 48 10 0 3 11 6 25 6 35 0 31 -22 -5 -30 -21 -5 -30 -13 -30 -26 0
-16 5 -19 20 -14 12 4 20 2 20 -5 0 -7 -8 -14 -17 -17 -15 -4 -39 -42 -62 -97
-2 -5 5 -7 16 -4 11 3 35 -3 54 -13 19 -10 42 -21 52 -25 21 -8 22 -20 2 -28
-22 -8 -18 -21 10 -34 40 -18 29 -30 -25 -28 -27 2 -50 -1 -50 -6 0 -4 21 -8
48 -9 41 0 44 -2 25 -11 -13 -6 -23 -17 -23 -25 0 -10 11 -12 46 -8 40 5 45 3
42 -12 -3 -13 -12 -17 -30 -15 -40 4 -41 -13 -2 -27 42 -15 43 -23 2 -44 l-33
-16 33 0 c17 -1 32 -5 32 -10 0 -6 -12 -9 -27 -8 -24 2 -27 -2 -29 -30 -2 -37
18 -49 65 -38 33 7 49 -16 25 -35 -10 -9 -14 -9 -14 -1 0 6 -5 11 -11 11 -6 0
-9 -9 -6 -20 3 -11 1 -20 -5 -20 -5 0 -6 -5 -3 -10 4 -6 15 -8 26 -5 10 4 19
2 19 -4 0 -15 -68 -34 -101 -27 -21 4 -29 2 -29 -8 0 -17 37 -27 68 -19 16 4
22 1 22 -12 0 -14 -7 -16 -30 -13 -16 3 -30 1 -30 -4 0 -4 18 -8 40 -8 36 0
40 -3 40 -25 0 -13 8 -29 18 -34 9 -6 12 -11 5 -11 -6 0 -15 5 -18 10 -3 6
-19 10 -36 10 -24 0 -29 -4 -29 -25 0 -14 5 -25 10 -25 6 0 10 -8 10 -18 0
-20 64 -44 79 -29 5 5 15 7 23 4 8 -3 3 -9 -14 -17 -23 -11 -26 -16 -15 -28 8
-11 9 -16 1 -19 -20 -7 -3 -53 22 -59 27 -7 23 -24 -6 -24 -10 0 -22 -4 -25
-10 -4 -6 3 -9 16 -7 12 1 24 -4 26 -10 3 -8 -5 -13 -21 -13 -14 0 -26 -4 -26
-10 0 -5 13 -10 29 -10 24 0 29 -4 28 -21 -1 -14 -7 -19 -20 -15 -13 3 -17 0
-15 -12 5 -26 35 -26 44 0 4 13 7 29 6 36 -5 25 17 11 38 -24 25 -44 13 -69
-20 -39 -11 10 -20 13 -20 7 0 -7 5 -12 10 -12 6 0 10 -7 10 -15 0 -8 -4 -15
-10 -15 -5 0 -10 5 -10 10 0 7 -6 7 -20 0 -21 -11 -28 -50 -9 -50 7 0 9 -10 7
-25 -4 -21 -2 -24 12 -20 11 3 20 -1 24 -11 4 -11 0 -18 -14 -21 -23 -6 -27
-43 -5 -43 8 0 23 9 32 20 23 26 34 25 56 -5 15 -20 15 -25 3 -25 -8 0 -16 6
-19 13 -3 9 -8 9 -23 -1 -11 -7 -27 -15 -36 -18 -19 -7 -25 -24 -8 -24 6 0 10
-9 10 -20 0 -13 -7 -20 -19 -20 -14 0 -18 -5 -14 -19 3 -10 0 -22 -6 -25 -16
-10 -13 -26 4 -26 8 0 15 5 15 10 0 6 6 10 14 10 14 0 26 29 26 68 0 13 6 22
16 22 11 0 14 -5 10 -16 -4 -10 3 -23 16 -35 13 -10 17 -18 11 -19 -18 0 -16
-21 3 -34 15 -12 10 -46 -7 -46 -5 0 -9 -10 -9 -22 0 -17 3 -19 12 -10 17 17
38 15 38 -3 0 -8 -5 -15 -11 -15 -5 0 -7 -4 -4 -10 3 -5 -1 -10 -10 -10 -9 0
-13 5 -10 10 3 6 -3 10 -14 10 -13 0 -18 -5 -15 -13 3 -8 -2 -20 -11 -27 -23
-19 -18 -33 10 -28 14 3 25 1 25 -3 0 -5 -6 -9 -14 -9 -8 0 -18 -9 -21 -21 -5
-14 -12 -18 -23 -14 -30 11 -37 10 -37 -5 0 -11 11 -15 43 -13 23 1 42 -2 42
-8 0 -5 18 -9 40 -9 29 0 40 -4 40 -15 0 -8 5 -15 12 -15 6 0 8 -3 5 -7 -4 -3
-15 2 -26 11 -18 16 -20 16 -44 -8 -15 -15 -21 -29 -16 -37 4 -7 3 -19 -2 -25
-6 -8 -4 -14 8 -18 10 -4 19 -2 21 3 2 6 13 11 25 11 20 0 20 0 1 -15 -19 -14
-18 -14 4 -15 12 0 22 -4 22 -9 0 -6 -12 -6 -32 0 -18 5 -39 9 -45 9 -20 0
-15 -20 5 -21 11 0 8 -4 -10 -10 -14 -6 -29 -16 -31 -23 -7 -18 31 -15 43 3 5
10 7 0 3 -27 -5 -35 -3 -42 11 -42 10 0 14 4 11 10 -9 15 4 12 21 -5 14 -13
12 -15 -15 -15 -41 0 -40 -20 2 -21 40 -2 39 -2 59 6 12 5 20 1 24 -10 9 -23
-14 -35 -43 -24 -32 12 -73 11 -73 -1 0 -5 11 -10 24 -10 57 0 77 -27 24 -32
l-33 -3 42 -27 c24 -16 51 -28 60 -29 11 0 13 -3 6 -6 -18 -7 -16 -23 3 -23
11 0 14 -6 9 -21 -5 -16 -4 -19 5 -14 9 5 11 4 6 -3 -10 -17 -47 -15 -40 2 3
7 -2 16 -10 19 -17 7 -30 -8 -21 -23 3 -5 0 -11 -7 -12 -7 0 7 -4 32 -7 l45
-7 -48 -5 c-48 -4 -49 -4 -43 22 3 18 0 29 -9 33 -8 3 -15 17 -15 31 0 14 -4
25 -10 25 -5 0 -10 -8 -10 -18 0 -10 -6 -24 -12 -30 -10 -10 -8 -14 10 -18 33
-9 27 -20 -12 -21 -32 -1 -34 1 -23 18 14 23 3 36 -18 19 -31 -26 -9 -53 45
-54 19 -1 25 -6 25 -26 0 -23 3 -24 55 -21 30 1 59 5 64 8 5 4 6 -7 3 -25 -6
-28 -4 -32 16 -33 16 -1 17 -3 5 -6 -9 -2 -27 1 -39 8 -22 11 -22 12 -4 25 17
13 15 14 -23 14 -42 0 -56 -13 -26 -24 8 -3 13 -10 10 -15 -3 -5 1 -15 10 -22
14 -11 13 -14 -8 -25 -33 -19 -35 -18 -30 16 4 25 1 29 -12 24 -28 -11 -37
-38 -20 -62 14 -20 14 -22 0 -22 -20 0 -20 -14 -1 -30 12 -10 15 -10 15 4 0 9
5 16 10 16 6 0 10 -7 10 -15 0 -18 -39 -40 -67 -36 -25 3 -39 -14 -19 -22 17
-7 77 13 88 28 4 6 8 2 8 -8 0 -10 -7 -20 -15 -23 -24 -10 -17 -22 15 -29 17
-4 28 -11 24 -16 -7 -12 -54 -12 -54 1 0 6 -8 5 -20 -2 -11 -7 -20 -21 -20
-30 0 -10 -4 -18 -10 -18 -20 0 -10 -19 13 -23 19 -3 18 -5 -11 -12 -30 -7
-45 -25 -21 -25 6 0 9 -9 6 -20 -6 -24 1 -25 24 -4 20 18 43 10 35 -12 -3 -8
1 -14 8 -14 8 0 16 6 18 12 3 9 10 8 23 -5 11 -12 27 -17 42 -14 20 4 23 0 22
-22 -1 -17 -3 -20 -6 -8 -2 9 -9 17 -15 17 -5 0 -8 -7 -4 -15 3 -9 -3 -19 -14
-25 -14 -8 -20 -21 -20 -46 0 -41 -18 -66 -36 -50 -6 6 -9 18 -6 28 3 12 -1
18 -12 18 -9 0 -16 -8 -16 -20 0 -15 -7 -20 -25 -20 -25 0 -36 -15 -12 -18 43
-5 77 -16 77 -23 0 -5 7 -9 15 -9 8 0 15 -7 15 -15 0 -8 -7 -15 -15 -15 -8 0
-15 -6 -15 -14 0 -8 7 -16 15 -20 8 -3 15 -10 15 -16 0 -5 -7 -10 -15 -10 -8
0 -15 7 -15 15 0 22 -16 18 -38 -10 -24 -30 -42 -32 -42 -5 0 16 -4 18 -22 11
-31 -11 -32 -25 -3 -41 14 -7 25 -20 25 -28 0 -12 -3 -12 -15 -2 -16 13 -45 7
-45 -9 0 -6 11 -13 25 -17 13 -3 24 -9 23 -13 -2 -19 4 -24 13 -11 9 13 10 13
6 0 -3 -13 -28 -30 -62 -44 -6 -2 -6 -8 1 -15 8 -9 14 -8 24 4 15 18 40 20 40
3 1 -7 7 1 14 17 12 25 15 27 21 12 10 -25 -1 -47 -24 -47 -19 0 -19 -1 -3
-30 9 -16 23 -30 30 -30 6 0 12 -4 12 -10 0 -5 -7 -10 -15 -10 -8 0 -15 -5
-15 -11 0 -7 10 -9 26 -5 22 6 25 4 22 -16 -3 -26 -46 -38 -59 -16 -6 10 -11
9 -22 -6 -13 -17 -12 -22 4 -39 15 -16 16 -23 6 -41 -7 -11 -16 -24 -22 -29
-6 -4 -3 -12 8 -21 34 -26 18 -76 -25 -76 -17 0 -27 -4 -23 -10 3 -6 17 -10
31 -10 13 0 24 -4 24 -10 0 -5 -10 -10 -22 -10 -13 0 -30 -4 -38 -10 -9 -5
-19 -5 -27 2 -8 6 -17 8 -21 4 -4 -4 1 -12 11 -17 9 -6 17 -21 17 -35 0 -22
-2 -23 -21 -14 -17 10 -20 9 -18 -7 1 -10 -3 -36 -9 -58 -8 -26 -8 -41 -2 -43
6 -2 10 -21 10 -42 0 -30 -5 -40 -20 -45 -35 -11 -22 -24 27 -27 25 -2 48 -8
50 -14 3 -8 -12 -10 -47 -6 -54 5 -66 -8 -32 -34 15 -12 15 -13 1 -14 -9 0
-19 7 -23 15 -3 8 -15 15 -26 15 -11 0 -20 -7 -20 -15 0 -8 -7 -15 -15 -15
-23 0 -20 -60 3 -60 16 -1 16 -2 -1 -15 -18 -13 -18 -14 4 -25 12 -7 17 -15
12 -19 -6 -3 -13 -27 -17 -53 -6 -41 -10 -47 -34 -50 l-27 -3 23 -20 c12 -11
22 -26 22 -33 0 -10 8 -12 28 -8 15 3 34 2 42 -4 13 -9 13 -10 0 -11 -8 -1
-22 -1 -31 0 -10 1 -20 -13 -29 -39 -9 -27 -19 -40 -32 -40 -13 0 -18 -8 -18
-29 0 -17 -4 -32 -9 -35 -15 -9 -33 22 -26 44 4 11 2 20 -4 20 -6 0 -11 -18
-11 -40 0 -29 4 -40 15 -40 20 0 19 -26 -2 -34 -15 -6 -32 8 -33 27 0 4 -7 7
-15 7 -11 0 -15 -11 -15 -40 0 -22 -4 -40 -10 -40 -5 0 -10 -18 -10 -40 0 -22
5 -40 10 -40 6 0 10 -7 10 -15 0 -8 7 -15 15 -15 8 0 15 -4 15 -10 0 -5 -7
-10 -15 -10 -8 0 -15 -7 -15 -15 0 -8 -4 -15 -10 -15 -5 0 -10 7 -10 15 0 8 5
15 10 15 6 0 10 5 10 11 0 6 -7 8 -16 5 -9 -4 -22 -1 -30 5 -10 8 -16 3 -29
-26 -19 -46 -19 -43 8 -47 27 -4 29 -31 2 -37 -11 -2 -24 -8 -28 -15 -5 -6 -6
1 -3 16 8 37 -7 42 -39 12 -19 -18 -25 -31 -21 -47 4 -16 -1 -29 -15 -41 -19
-16 -20 -19 -5 -41 14 -20 14 -28 4 -45 -7 -11 -21 -20 -32 -20 -11 0 -28 -7
-38 -17 -17 -15 -18 -14 -18 31 0 44 -1 46 -20 36 -13 -7 -27 -7 -37 -2 -13 7
-23 4 -37 -9 -15 -14 -16 -19 -5 -19 11 0 14 -19 14 -90 0 -50 -3 -90 -7 -90
-5 0 -8 -6 -8 -14 0 -20 -19 -31 -32 -18 -6 6 -7 18 -2 29 14 31 12 83 -2 83
-9 0 -14 13 -14 38 0 49 -23 83 -42 64 -11 -11 -9 -17 10 -32 27 -22 28 -38 5
-56 -16 -12 -16 -13 -2 -14 25 0 41 -24 27 -38 -8 -8 -8 -15 2 -27 14 -17 9
-19 -42 -15 -16 1 -28 -3 -28 -9 0 -6 -12 -8 -29 -5 -20 4 -30 2 -34 -10 -4
-9 -13 -16 -22 -16 -20 0 -19 -26 1 -34 41 -16 84 4 84 38 0 19 16 21 26 4 4
-6 -1 -17 -10 -23 -9 -7 -16 -17 -15 -21 4 -22 -2 -34 -16 -34 -9 0 -21 -11
-27 -25 -15 -34 -22 -32 -44 15 -10 22 -22 40 -26 40 -5 0 -8 6 -8 13 0 18
-24 67 -32 67 -13 0 -9 -25 7 -56 8 -16 15 -48 15 -71 0 -47 26 -73 49 -50 15
15 31 -6 24 -32 -6 -24 -49 -72 -57 -64 -14 14 -5 33 16 33 38 0 0 27 -47 33
-22 3 -32 3 -22 1 20 -6 21 -13 7 -50 l-11 -28 -14 28 c-8 16 -15 35 -15 42 0
19 -39 18 -47 -2 -3 -9 0 -20 7 -24 11 -7 11 -14 1 -38 -7 -17 -10 -36 -6 -42
7 -11 -15 -70 -27 -70 -15 0 -18 21 -4 26 9 4 16 18 16 34 0 32 -25 46 -60 35
-26 -8 -28 -60 -2 -70 16 -6 16 -7 -1 -20 -12 -9 -14 -14 -6 -17 7 -2 9 -10 5
-16 -5 -8 -17 6 -34 40 -14 29 -36 63 -50 76 -23 22 -23 22 -51 3 -15 -11 -33
-19 -41 -19 -8 1 -26 0 -40 0 -19 -2 -21 -5 -12 -14 9 -9 15 -9 24 0 18 18 28
15 28 -8 0 -11 4 -20 8 -20 5 0 14 -11 20 -25 11 -23 9 -27 -14 -35 -14 -6
-31 -10 -39 -10 -7 0 -23 -12 -35 -27 l-22 -28 33 -3 c62 -5 79 -12 94 -42 14
-27 14 -30 0 -30 -8 0 -15 7 -15 15 0 20 -32 35 -74 35 -25 0 -36 -4 -36 -15
0 -8 -9 -15 -20 -15 -11 0 -20 5 -20 11 0 6 -14 9 -32 7 -32 -3 -33 -2 -30 30
2 18 -1 32 -7 32 -6 0 -11 -4 -11 -10 0 -5 -7 -10 -15 -10 -9 0 -15 9 -15 22
0 21 -1 21 -17 5 -15 -14 -15 -19 -5 -26 11 -7 11 -9 -2 -14 -20 -8 -21 -37
-1 -37 8 0 15 7 15 15 0 18 16 20 26 3 4 -6 0 -16 -9 -23 -24 -17 -21 -25 7
-25 18 0 29 -9 40 -32 21 -42 20 -48 -8 -48 -17 0 -29 9 -38 28 -11 22 -21 28
-56 30 -45 3 -56 18 -19 25 l22 4 -22 8 c-17 5 -23 15 -23 36 0 16 -4 29 -10
29 -13 0 -13 -12 0 -46 8 -20 8 -29 -1 -34 -8 -6 -8 -9 0 -15 9 -5 9 -10 0
-21 -9 -11 -9 -18 -1 -26 17 -17 15 -38 -3 -38 -8 0 -15 -4 -15 -10 0 -5 9
-10 21 -10 11 0 17 -5 14 -10 -8 -13 -45 -13 -45 0 0 6 -9 10 -19 10 -11 0
-22 6 -25 13 -3 8 -11 5 -24 -10 -21 -23 -52 -31 -52 -13 0 6 -4 10 -10 10
-14 0 -12 -66 2 -90 15 -23 4 -37 -16 -21 -12 10 -20 10 -38 -3 -12 -9 -41
-16 -63 -15 -33 1 -36 2 -15 8 22 6 23 8 6 14 -18 7 -18 8 -2 26 17 18 16 20
-1 30 -10 6 -12 11 -5 11 7 0 12 15 12 40 0 24 5 40 12 40 6 0 9 2 7 5 -3 2
-15 2 -27 -2 -15 -3 -22 -13 -22 -29 0 -15 -6 -24 -15 -24 -8 0 -15 -7 -15
-15 0 -8 8 -15 18 -15 14 0 12 -4 -8 -20 l-25 -20 21 -17 c27 -23 34 -103 10
-103 -12 0 -16 -10 -16 -40 0 -29 4 -40 15 -40 8 0 15 -7 15 -15 0 -14 -3 -13
-25 2 -18 14 -24 27 -25 56 0 20 5 37 10 37 20 0 10 29 -12 36 -13 4 -26 12
-30 18 -5 8 -11 7 -20 -2 -11 -11 -10 -16 5 -26 32 -24 21 -46 -23 -46 -38 0
-60 20 -22 20 16 1 16 1 0 14 -22 16 -23 42 -3 50 19 7 20 36 0 36 -14 0 -27
-35 -40 -112 -6 -34 -10 -36 -51 -43 -44 -6 -62 -25 -24 -25 11 0 20 -4 20
-10 0 -5 -15 -10 -34 -10 -18 0 -51 -8 -72 -17 l-39 -17 29 -4 c16 -2 32 1 35
6 8 13 131 25 164 17 17 -5 27 -14 27 -25 0 -10 6 -20 13 -23 7 -2 8 -8 3 -13
-5 -5 -11 -4 -13 4 -7 18 -31 15 -35 -5 -3 -15 -4 -15 -17 0 -12 15 -11 17 3
17 9 0 16 7 16 15 0 11 -11 15 -40 15 -22 0 -40 -4 -40 -10 0 -5 -19 -11 -42
-11 -39 -1 -40 -2 -13 -8 l30 -7 -34 -7 c-18 -4 -53 -7 -77 -7 -27 0 -44 -5
-44 -12 0 -6 -7 -20 -17 -30 -15 -17 -15 -18 5 -18 19 0 22 -6 22 -40 0 -33
-3 -40 -19 -40 -11 0 -23 -5 -27 -11 -4 -6 -20 -8 -39 -5 -18 4 -45 1 -59 -5
-26 -12 -35 -29 -16 -29 6 0 10 3 10 8 0 4 17 7 37 7 28 0 40 -5 46 -19 7 -18
18 -18 60 -1 12 5 17 2 17 -8 0 -8 5 -17 12 -19 9 -3 9 -6 0 -12 -7 -4 -12 -2
-12 3 0 6 -13 11 -29 11 -24 0 -28 -3 -24 -24 3 -15 -1 -25 -11 -29 -12 -5
-16 0 -16 23 0 19 -7 33 -19 40 -34 17 -46 4 -43 -45 3 -28 0 -45 -7 -45 -6 0
-11 -18 -11 -40 0 -29 -4 -40 -15 -40 -11 0 -15 11 -15 36 0 20 -7 43 -17 52
-16 16 -16 16 -10 -1 4 -10 7 -34 7 -53 0 -27 5 -37 25 -46 16 -7 25 -19 25
-34 0 -21 -3 -22 -32 -13 -18 5 -40 6 -50 3 -22 -6 -38 44 -18 56 9 6 9 12 1
29 -16 29 -28 26 -46 -9 -14 -28 -14 -32 0 -46 8 -8 15 -24 15 -35 0 -15 7
-19 35 -19 34 0 35 -1 35 -40 0 -41 -8 -47 -40 -30 -33 17 -45 4 -42 -45 3
-31 8 -45 19 -45 16 0 43 -24 43 -39 0 -5 8 -12 18 -14 16 -4 16 -5 0 -6 -10
0 -18 -5 -18 -11 0 -5 -4 -10 -10 -10 -5 0 -10 14 -10 30 0 27 -3 30 -30 30
-26 0 -30 -3 -30 -29 0 -16 6 -32 13 -34 6 -3 1 -6 -13 -6 -24 -1 -25 2 -22
44 2 25 8 45 13 45 5 0 9 29 9 64 0 62 0 63 25 58 13 -2 33 -1 42 3 17 6 17 7
1 16 -17 10 -66 7 -86 -4 -6 -4 -9 -14 -6 -21 3 -8 -4 -17 -18 -21 l-23 -8 23
-4 c29 -6 28 -19 -3 -39 -14 -9 -25 -21 -25 -28 0 -7 -17 -11 -42 -10 -40 1
-40 1 -5 -3 36 -4 37 -5 37 -44 0 -39 0 -39 -40 -39 -38 0 -40 1 -40 32 0 54
-19 18 -26 -50 -6 -56 -5 -62 11 -62 10 0 16 -3 12 -6 -3 -3 -15 -3 -27 1 -20
6 -21 12 -16 86 5 74 4 79 -14 79 -17 0 -18 -3 -8 -19 9 -15 9 -25 1 -43 -10
-20 -12 -20 -12 -4 -1 18 -2 18 -21 1 -11 -10 -20 -24 -20 -32 0 -7 -9 -13
-20 -13 -11 0 -20 -7 -20 -15 0 -16 -39 -21 -55 -7 -16 14 -105 2 -105 -14 0
-8 -7 -14 -15 -14 -11 0 -15 -11 -15 -40 0 -33 3 -40 20 -40 17 0 20 7 20 40
0 38 2 40 30 40 28 0 30 -2 30 -40 0 -33 -3 -40 -19 -40 -11 0 -29 -12 -40
-26 l-20 -26 -24 26 c-31 33 -47 33 -47 1 0 -22 -4 -25 -34 -25 -19 0 -41 -3
-50 -6 -12 -4 -16 0 -16 15 0 12 5 21 10 21 6 0 10 7 10 15 0 9 -9 15 -22 14
-14 0 -17 -3 -9 -6 11 -4 8 -10 -10 -24 l-24 -19 25 -20 25 -20 -22 0 c-20 0
-23 -5 -23 -40 0 -38 2 -40 30 -40 17 0 30 5 30 10 0 6 7 10 15 10 8 0 15 -4
15 -10 0 -5 -7 -10 -15 -10 -8 0 -15 -4 -15 -9 0 -15 -90 -18 -102 -4 -8 10
-6 13 6 13 12 0 16 10 16 40 0 29 -4 40 -15 40 -8 0 -15 6 -15 14 0 17 -40 32
-49 19 -3 -6 -19 -14 -36 -19 l-30 -8 33 -4 c30 -3 32 -6 32 -40 0 -20 7 -46
15 -56 19 -25 19 -36 0 -36 -9 0 -15 9 -15 25 0 23 -4 25 -46 25 -41 0 -51 5
-84 39 l-38 39 -16 -39 c-16 -39 -29 -48 -41 -29 -3 6 -16 11 -28 11 -17 1
-18 2 -4 6 21 5 23 33 2 33 -7 0 -18 -7 -23 -15 -4 -9 -24 -17 -43 -18 -40 -3
-62 -14 -53 -28 3 -6 -2 -17 -12 -24 -18 -13 -18 -14 4 -8 12 3 29 0 37 -7 21
-17 32 -4 18 20 -10 15 -9 19 3 24 29 11 34 6 34 -39 0 -37 -3 -45 -18 -45
-10 0 -23 5 -29 11 -7 7 -20 8 -30 4 -17 -7 -17 -8 2 -15 18 -7 17 -8 -9 -15
-18 -5 -36 -3 -48 4 -14 8 -23 8 -38 -1 -29 -18 -25 -28 8 -22 18 4 34 1 43
-9 8 -8 25 -18 37 -21 28 -9 28 -20 0 -48 l-23 -23 -3 24 c-4 27 -24 51 -42
51 -16 0 -40 -26 -40 -43 0 -8 -11 -18 -25 -21 -33 -8 -32 -33 3 -39 15 -3
-10 -3 -55 0 -72 4 -83 3 -83 -11 0 -18 -15 -22 -25 -6 -9 14 -55 13 -55 -1 0
-7 8 -18 18 -25 16 -13 16 -13 0 -14 -23 0 -24 -20 -1 -20 9 0 14 -3 10 -6 -3
-3 -15 -3 -26 1 -17 5 -21 15 -21 46 l0 39 50 0 c38 0 50 4 50 15 0 11 -11 15
-40 15 -22 0 -40 -4 -40 -10 0 -5 -18 -10 -40 -10 -40 0 -53 13 -25 24 19 7
19 26 0 26 -8 0 -15 5 -15 10 0 6 5 10 10 10 6 0 10 7 10 15 0 8 -4 15 -10 15
-5 0 -10 -7 -10 -15 0 -8 -4 -15 -10 -15 -5 0 -10 -18 -10 -40 0 -37 -2 -40
-28 -40 -18 0 -30 -7 -37 -22 -6 -12 -19 -26 -30 -32 -11 -6 -23 -15 -27 -21
-13 -18 -19 3 -7 24 7 11 10 24 5 28 -9 9 -46 -33 -46 -53 0 -24 -15 -15 -27
16 -14 37 -30 38 -45 5 -14 -32 -22 -31 -38 3 l-13 27 -8 -30 c-6 -28 -7 -27
-8 11 -1 29 -6 44 -17 48 -9 4 -19 4 -22 1 -3 -3 0 -5 6 -5 7 0 12 -16 12 -40
0 -36 -2 -40 -25 -40 -16 0 -25 6 -25 15 0 8 -7 15 -15 15 -8 0 -15 -7 -15
-15 0 -12 -13 -15 -55 -15 -30 0 -55 -4 -55 -9 0 -4 -22 -6 -49 -3 -42 4 -50
2 -54 -14 -4 -17 -6 -17 -12 4 -4 12 -15 22 -25 22 -10 0 -21 -10 -25 -22 l-8
-23 -4 23 c-4 18 -11 22 -44 22 -21 0 -39 -4 -39 -10 0 -6 -27 -10 -60 -10
-33 0 -60 4 -60 10 0 6 -9 10 -19 10 -16 0 -21 8 -24 43 l-4 42 -1 -42 c-2
-41 -4 -43 -32 -43 -28 0 -30 2 -32 43 -1 36 -2 38 -5 10 -4 -31 -7 -33 -44
-33 l-39 0 0 43 c0 23 -4 37 -8 31 -4 -7 -18 -14 -32 -16 l-25 -4 33 -29 c17
-16 32 -33 32 -37 0 -5 -19 -8 -41 -8 l-42 0 5 49 c3 28 1 56 -3 63 -6 9 -9 6
-9 -9 0 -16 -6 -23 -19 -23 -16 0 -20 8 -23 42 -2 23 -8 43 -16 44 -7 1 -8 0
-2 -3 14 -7 13 -26 -3 -57 l-14 -26 -11 25 c-16 35 -31 31 -50 -15 -21 -48
-55 -57 -50 -12 3 27 2 27 -59 30 -50 2 -63 0 -63 -12 0 -8 8 -17 18 -19 16
-4 16 -5 0 -6 -10 0 -24 12 -33 29 -19 37 -30 38 -49 3 -8 -16 -15 -22 -16
-14 0 10 -10 12 -40 7 -36 -6 -40 -4 -40 14 0 11 -4 20 -10 20 -5 0 -10 7 -10
15 0 8 -9 15 -20 15 -11 0 -20 -7 -20 -15 0 -10 -10 -15 -30 -15 -20 0 -30 5
-30 15 0 8 -4 15 -9 15 -5 0 -12 12 -17 28 l-8 27 -6 -35 -7 -35 -11 28 c-6
15 -18 27 -27 27 -8 0 -15 9 -15 20 0 16 -7 20 -34 20 -18 0 -39 7 -46 15 -7
8 -18 15 -25 15 -7 0 -15 7 -19 15 -7 20 -26 19 -42 -2 -12 -16 -13 -14 -12
19 1 27 6 38 21 42 10 2 16 9 12 15 -11 19 -33 12 -39 -14 -4 -14 -13 -25 -20
-25 -8 0 -16 -6 -18 -12 -5 -15 -31 8 -36 32 -5 22 -53 62 -68 56 -8 -3 -19 4
-25 17 -12 21 -12 21 -19 2 -5 -15 -8 -9 -13 23 -7 38 -27 56 -40 35 -2 -5 -2
-3 -1 4 2 6 -2 13 -9 16 -7 2 -12 12 -12 23 0 15 -8 19 -37 20 -21 1 -38 -3
-38 -7 0 -5 5 -9 10 -9 20 0 9 -17 -22 -33 -20 -10 -24 -15 -10 -11 26 6 27 1
6 -32 -12 -17 -22 -23 -36 -18 -15 4 -22 -1 -31 -25 -12 -32 -37 -43 -37 -16
0 8 -4 15 -10 15 -5 0 -10 -9 -10 -20 0 -11 5 -20 10 -20 6 0 10 -9 10 -20 0
-15 -7 -20 -25 -20 -15 0 -25 -6 -25 -14 0 -8 -5 -18 -10 -21 -18 -11 -39 15
-42 53 l-3 37 -23 -42 c-12 -24 -29 -43 -37 -43 -8 0 -15 -5 -15 -12 0 -6 -3
-9 -6 -5 -10 10 7 47 22 47 18 0 18 11 -1 36 -8 11 -15 14 -15 7 0 -20 -80
-17 -80 2 0 8 -6 15 -13 15 -8 0 -19 12 -26 26 -10 22 -16 25 -41 21 -32 -7
-49 8 -31 26 17 17 13 41 -9 60 -12 10 -17 23 -13 33 4 12 1 15 -12 13 -11 -3
-26 -24 -38 -54 -11 -27 -21 -51 -22 -53 -1 -1 -10 0 -19 4 -20 8 -21 24 -1
24 8 0 15 7 15 15 0 8 -7 15 -15 15 -8 0 -15 5 -15 12 0 6 -8 4 -20 -7 -19
-17 -20 -16 -52 10 -28 24 -33 25 -44 11 -6 -9 -14 -16 -17 -16 -6 0 1 85 8
108 5 15 0 15 -26 2 -17 -10 -19 -7 -19 28 0 21 4 42 9 48 11 11 -4 54 -19 54
-6 0 -13 -6 -16 -14 -3 -9 -12 -12 -22 -9 -11 5 -14 2 -10 -9 5 -11 0 -15 -17
-15 -21 0 -22 1 -9 26 12 22 12 26 -1 29 -19 4 -19 36 0 52 20 17 19 84 -1
101 -14 12 -19 10 -38 -14 -27 -33 -34 -34 -32 -3 0 13 3 24 6 24 18 -1 20 4
6 17 -8 8 -20 13 -28 12 -7 -2 -10 -2 -5 0 4 3 4 9 1 14 -3 6 -11 5 -20 -2 -8
-6 -14 -8 -14 -5 0 6 38 64 50 76 3 3 6 26 7 53 2 46 -9 62 -21 32 -3 -8 -12
-15 -21 -15 -8 0 -15 -9 -15 -19 0 -11 -4 -23 -10 -26 -6 -3 -7 1 -4 10 4 10
2 15 -6 13 -7 -2 -15 3 -17 10 -3 6 3 12 12 12 13 0 14 4 5 20 -6 11 -20 20
-31 20 -17 0 -18 3 -9 21 9 16 14 18 26 8 8 -7 14 -7 14 -1 0 13 -24 22 -58
22 -25 1 -25 2 -9 14 21 16 22 32 3 39 -8 3 -16 16 -18 29 -2 15 -9 22 -21 21
-16 -1 -18 5 -15 33 6 48 -22 55 -61 15 l-30 -30 6 37 c3 20 10 39 15 40 4 2
8 11 8 20 0 8 -3 12 -7 9 -9 -10 -33 13 -33 32 0 10 -9 27 -20 39 -12 12 -17
22 -13 22 4 0 -2 6 -12 14 -25 18 -29 16 -56 -41 -16 -34 -19 -48 -10 -51 23
-8 -9 -32 -35 -26 -19 5 -24 2 -24 -12 0 -16 -2 -17 -10 -4 -6 10 -10 11 -10
3 0 -7 -6 -13 -14 -13 -20 0 -25 -31 -9 -56 10 -16 11 -28 4 -48 -6 -14 -8
-32 -5 -40 3 -9 -4 -16 -20 -20 -31 -8 -35 -27 -5 -23 12 1 24 -3 26 -10 3 -7
-3 -10 -14 -7 -10 3 -31 0 -47 -6 -21 -7 -26 -15 -21 -27 6 -18 -24 -93 -39
-93 -4 0 -5 7 -2 15 20 49 19 50 -7 26 -16 -14 -31 -20 -39 -15 -7 4 -10 4 -6
-1 4 -4 3 -16 -3 -26 -6 -13 -6 -19 1 -19 5 0 10 -7 10 -15 0 -19 -19 -19 -26
0 -5 13 -8 13 -21 0 -16 -17 -59 -20 -67 -6 -4 5 0 12 6 14 10 4 10 6 1 6 -7
1 -13 8 -13 16 0 19 -21 65 -30 65 -11 0 -29 -50 -32 -90 -2 -24 -7 -34 -17
-32 -21 5 -30 -17 -24 -57 4 -29 3 -34 -7 -24 -7 7 -27 9 -48 6 -29 -5 -34 -3
-30 9 4 8 2 21 -3 29 -7 11 -12 12 -29 1 -17 -10 -20 -10 -20 3 0 13 -3 13
-26 -2 l-26 -17 7 42 c6 38 5 42 -14 42 -17 0 -21 6 -21 30 0 19 -5 30 -14 30
-8 0 -16 7 -20 15 -8 22 -23 18 -30 -7 -6 -21 -7 -21 -17 -5 -12 21 -29 22
-29 2 0 -12 -7 -14 -26 -9 -29 7 -44 -7 -44 -43 0 -13 -4 -23 -10 -23 -5 0
-10 5 -10 10 0 6 -5 10 -11 10 -6 0 -8 -8 -4 -19 9 -29 -7 -30 -32 -4 -12 13
-18 23 -13 23 6 0 10 9 10 20 0 25 -18 25 -49 1 -20 -15 -27 -16 -38 -6 -7 7
-18 15 -24 17 -6 2 -11 20 -11 41 0 23 -6 40 -15 46 -11 6 -12 10 -4 15 6 4
11 20 11 35 0 15 5 32 12 39 6 6 9 15 5 18 -3 4 -14 -1 -23 -10 -15 -16 -18
-16 -40 5 -27 26 -30 34 -10 26 8 -3 17 1 20 9 9 24 7 27 -10 20 -9 -3 -25 1
-37 9 -28 20 -36 19 -30 -4 3 -10 0 -22 -6 -25 -16 -10 -13 -32 5 -51 9 -9 13
-19 10 -23 -4 -3 -10 -2 -14 3 -11 15 -70 44 -76 37 -12 -11 -6 -32 9 -32 8 0
15 -7 15 -15 0 -8 5 -15 10 -15 6 0 10 -5 10 -11 0 -7 -11 -8 -30 -4 -24 5
-30 3 -30 -10 0 -13 -5 -16 -22 -10 -13 4 -38 7 -55 8 -18 0 -33 4 -33 9 0 4
6 8 14 8 13 0 26 28 26 58 0 6 -9 12 -20 12 -11 0 -20 -4 -20 -10 0 -5 -11
-10 -25 -10 -20 0 -25 5 -25 24 0 13 -7 29 -15 36 -8 7 -15 18 -15 25 0 7 -6
18 -14 24 -12 10 -20 9 -39 -4 -23 -15 -25 -15 -30 7 -4 12 -2 27 3 32 13 13
13 56 0 56 -5 0 -14 -8 -20 -17 -9 -16 -10 -15 -9 7 1 14 -1 32 -5 40 -3 8 -4
31 -2 50 3 19 2 50 -1 68 -7 42 -32 40 -47 -4 -11 -30 -11 -31 -30 -13 -13 12
-27 17 -43 13 -28 -7 -30 7 -3 24 13 8 20 23 20 41 0 39 -15 47 -34 19 -9 -12
-17 -20 -19 -17 -11 12 -17 78 -7 84 5 3 10 22 10 40 0 26 -3 33 -15 29 -10
-4 -15 0 -15 15 0 27 -31 28 -55 1 -16 -18 -17 -21 -1 -44 19 -31 22 -56 4
-38 -16 16 -48 15 -48 -1 0 -7 5 -18 12 -25 9 -9 7 -12 -11 -12 -18 0 -22 -4
-18 -20 3 -11 1 -23 -4 -26 -14 -8 -11 -18 16 -58 18 -27 21 -36 10 -36 -17 0
-20 -21 -5 -36 12 -12 -4 -39 -19 -30 -6 4 -11 12 -11 17 0 6 5 7 10 4 6 -3
10 -1 10 4 0 14 -37 14 -45 1 -5 -9 -41 -5 -53 5 -7 6 12 35 24 35 8 0 14 5
14 10 0 6 -16 10 -35 10 -24 0 -35 -5 -35 -15 0 -8 -4 -15 -10 -15 -5 0 -10 5
-10 11 0 8 -5 7 -16 -2 -13 -11 -14 -9 -9 14 6 22 4 25 -14 20 -12 -3 -24 -9
-27 -14 -12 -20 -23 -7 -18 20 6 28 -7 63 -32 88 -7 7 -14 18 -17 25 -3 10 -9
10 -23 2 -15 -8 -22 -5 -44 20 -27 32 -36 71 -19 81 24 15 -1 95 -30 95 -6 0
-12 6 -12 13 -1 6 -2 17 -4 22 -1 6 -3 19 -3 29 -2 19 -2 19 -16 1 -17 -24
-42 -14 -51 22 -11 46 -25 56 -46 37 -18 -16 -19 -16 -19 4 0 32 -16 35 -46 7
-34 -32 -39 -31 -54 4 -6 16 -21 32 -33 35 -22 6 -22 7 -3 21 18 14 19 15 2
15 -12 0 -16 5 -12 15 3 8 1 15 -4 15 -6 0 -10 6 -10 13 0 6 -15 36 -32 65
-24 37 -38 51 -50 48 -11 -2 -18 2 -18 11 0 8 -5 11 -11 7 -8 -4 -9 0 -4 15 4
12 2 21 -4 21 -6 0 -11 15 -11 33 0 43 -9 51 -32 30 -17 -15 -18 -15 -18 11 0
16 -4 25 -10 21 -6 -3 -10 1 -10 9 0 9 -7 16 -15 16 -8 0 -15 6 -15 14 0 8 -5
18 -11 21 -13 9 -40 -26 -34 -43 3 -8 -1 -22 -9 -33 -12 -18 -15 -16 -38 31
l-25 51 -27 -35 c-14 -19 -26 -39 -26 -44 0 -5 -8 -12 -19 -15 -12 -3 -21 -17
-25 -41 -6 -32 -26 -52 -26 -26 0 6 -4 10 -10 10 -5 0 -10 -11 -10 -25 0 -29
-7 -31 -32 -8 -25 23 -32 11 -20 -37 8 -33 7 -40 -5 -40 -8 0 -11 5 -7 11 4 7
1 10 -7 7 -8 -3 -20 2 -28 10 -13 12 -16 12 -27 -3 -8 -10 -15 -23 -18 -29 -3
-7 -9 -6 -16 4 -10 13 -11 12 -6 -3 9 -28 -20 -32 -59 -8 -43 25 -46 26 -39 6
4 -10 0 -15 -11 -15 -14 0 -16 6 -11 31 3 19 1 38 -5 46 -9 10 -9 20 -1 36 6
12 13 34 16 50 6 23 3 27 -17 27 -24 0 -47 -17 -47 -35 0 -5 5 -3 10 5 5 8 10
10 10 4 0 -7 -15 -23 -33 -37 -23 -17 -34 -21 -34 -12 0 8 7 17 14 19 8 3 11
10 8 16 -4 6 -11 8 -16 5 -17 -11 -9 12 11 30 12 10 18 25 16 32 -3 8 0 23 6
33 10 15 10 22 0 32 -11 11 -16 9 -27 -6 -16 -21 -65 -49 -65 -37 0 5 9 19 19
32 14 17 16 29 10 41 -9 16 -11 16 -30 -3 -11 -11 -24 -17 -29 -14 -14 8 -12
69 1 82 16 16 17 129 2 144 -10 10 -15 9 -27 -1 -13 -10 -18 -7 -33 20 -27 48
-51 73 -63 65 -6 -3 -8 -10 -5 -14 2 -5 -7 -19 -21 -32 -20 -19 -27 -21 -33
-10 -14 22 -32 2 -27 -30 2 -16 0 -31 -5 -35 -5 -3 -6 -16 -3 -30 5 -18 2 -24
-10 -24 -9 0 -16 7 -16 15 0 29 -22 18 -55 -30 -17 -25 -31 -14 -16 13 12 22
6 32 -21 32 -10 0 -18 5 -18 10 0 6 5 10 11 10 8 0 7 6 -2 16 -8 9 -14 22 -15
28 0 6 -2 19 -2 29 -3 24 -38 22 -60 -4 -9 -12 -23 -27 -30 -35 -7 -8 -10 -14
-5 -15 4 -1 -3 -4 -16 -8 -28 -8 -41 -31 -17 -31 20 0 21 -34 1 -50 -12 -10
-16 -8 -25 14 -5 14 -14 26 -19 26 -5 0 -12 11 -15 25 -4 14 -10 25 -15 25
-12 0 -32 -60 -25 -72 4 -6 -12 1 -34 13 -29 17 -38 27 -31 36 7 8 4 15 -11
23 -11 6 -18 15 -15 21 4 5 1 9 -4 9 -6 0 -11 -4 -11 -10 0 -5 -6 -10 -13 -10
-9 0 -11 12 -9 40 3 31 1 40 -12 40 -9 0 -18 12 -22 28 -12 54 -15 61 -33 67
-11 3 -21 15 -25 27 -3 12 -8 19 -12 15 -9 -9 -35 13 -29 24 8 12 -45 45 -53
33 -4 -6 -33 -21 -64 -33 -60 -24 -72 -39 -38 -48 11 -3 20 -14 20 -25 0 -18
-1 -18 -16 -4 -17 18 -64 22 -64 6 0 -5 9 -10 20 -10 11 0 20 -5 20 -11 0 -6
-7 -8 -16 -5 -9 3 -24 6 -33 6 -14 0 -17 6 -13 25 3 20 0 25 -17 25 -14 0 -21
-6 -21 -19 0 -10 -6 -21 -14 -24 -9 -4 -12 0 -9 12 3 13 -3 20 -22 25 -28 7
-25 22 9 36 18 8 17 9 -9 7 -21 -1 -30 2 -30 13 0 8 8 14 17 14 16 -2 15 2 -5
30 -12 17 -21 32 -19 34 1 1 2 11 2 22 0 14 -7 20 -21 20 -15 0 -19 4 -15 16
5 13 1 15 -21 11 -16 -4 -22 -4 -14 0 11 4 8 10 -10 24 l-24 19 25 20 c14 11
19 20 13 20 -16 0 -18 77 -2 82 16 5 0 35 -22 41 -24 6 -36 36 -19 47 10 6 9
9 -1 13 -11 4 -12 7 -1 18 16 18 15 29 -4 29 -9 0 -12 5 -8 12 5 8 2 9 -10 5
-12 -5 -16 -3 -13 5 2 7 15 12 28 11 13 -1 18 1 12 3 -7 3 -13 14 -13 24 0 10
-6 21 -12 23 -8 3 -5 6 5 6 10 1 16 5 12 11 -3 5 -12 7 -19 4 -8 -3 -18 8 -26
28 -8 18 -26 45 -42 61 -15 15 -28 32 -28 37 0 6 -4 10 -10 10 -5 0 -7 7 -4
15 6 15 -4 19 -38 16 -10 -1 -18 4 -18 13 0 8 -9 24 -21 34 -17 17 -18 20 -5
25 24 9 19 46 -6 58 -13 6 -32 25 -43 42 -22 34 -45 46 -45 24 0 -18 -27 -42
-49 -42 -12 0 -15 -8 -13 -27 3 -28 3 -28 -53 -28 -44 0 -57 -4 -61 -17 -11
-35 -21 -48 -43 -51 -11 -2 -21 -10 -21 -17 0 -8 -9 -17 -20 -20 -26 -8 -26
-22 0 -30 11 -3 20 -12 20 -20 0 -7 6 -15 13 -18 6 -2 -23 -3 -65 -2 -71 2
-78 1 -84 -19 -9 -28 -24 -36 -51 -29 -14 3 -23 1 -23 -6 0 -6 5 -11 10 -11 6
0 10 -5 10 -11 0 -7 -10 -9 -25 -5 -14 4 -25 2 -25 -4 0 -5 -8 -10 -17 -10
-14 0 -15 -2 -4 -9 8 -5 9 -11 3 -15 -5 -3 -7 -18 -4 -32 4 -23 2 -26 -13 -20
-10 3 -24 1 -31 -5 -11 -9 -14 -8 -14 1 0 6 -17 -5 -37 -26 -21 -22 -38 -33
-41 -26 -3 9 -9 9 -24 1 -16 -9 -20 -7 -25 10 -3 11 -4 23 -3 27 3 11 -24 24
-30 14 -4 -6 -23 -1 -45 10 -21 11 -42 17 -46 14 -5 -3 -13 6 -19 20 -11 31
-36 34 -45 6 -8 -27 -29 -26 -22 1 5 17 2 20 -14 16 -10 -3 -16 -1 -13 4 3 5
-6 23 -19 39 -24 29 -25 29 -42 9 -10 -10 -25 -19 -34 -19 -14 1 -14 2 2 14
16 13 24 36 11 36 -4 0 -13 -8 -20 -17 -9 -13 -13 -14 -14 -4 0 8 -6 11 -16 7
-19 -7 -57 21 -48 35 9 15 26 10 20 -6 -4 -11 2 -15 22 -15 22 0 24 2 12 11
-11 8 -12 12 -3 16 24 9 13 23 -18 23 -28 0 -30 2 -25 28 4 17 1 35 -8 47 -14
19 -15 19 -21 3 -11 -27 -42 -22 -47 7 -3 14 -1 28 4 31 12 8 -43 60 -72 69
-15 5 -18 3 -14 -9 5 -13 0 -15 -22 -12 -16 2 -36 7 -45 10 -23 10 -42 -18
-35 -51 5 -26 5 -26 -6 -6 -10 21 -15 22 -84 16 -71 -5 -74 -4 -74 16 0 18 6
21 40 21 22 0 40 5 40 10 0 6 -20 10 -45 10 l-45 0 0 -40 0 -40 45 0 c25 0 45
-5 45 -10 0 -6 -15 -8 -40 -4 -26 4 -40 3 -40 -4 0 -6 -9 -16 -19 -22 -17 -8
-22 -5 -35 22 -9 17 -16 43 -16 57 0 14 -3 37 -7 49 -5 21 -10 23 -47 18 -23
-2 -52 -6 -66 -8 -20 -2 -24 1 -22 16 2 10 -6 25 -17 33 -15 10 -21 25 -21 54
0 36 2 39 28 40 l27 1 -28 10 c-21 7 -32 7 -40 -1 -6 -6 -19 -11 -29 -11 -14
0 -18 -9 -20 -42 -1 -36 -2 -38 -5 -11 -5 37 -18 50 -58 56 -27 4 -26 4 8 6
49 1 77 17 77 41 0 25 -29 40 -74 40 -20 0 -36 5 -36 10 0 6 18 10 40 10 22 0
40 5 40 10 0 6 -18 10 -40 10 -22 0 -40 -4 -40 -10 0 -5 -18 -10 -40 -10 -36
0 -40 3 -40 25 0 13 11 36 25 50 22 21 35 25 80 25 43 0 55 3 55 16 0 12 9 14
38 12 32 -3 37 -7 40 -31 5 -42 27 -27 28 20 1 50 10 66 31 54 19 -10 52 -3
75 16 9 8 22 12 28 8 20 -13 59 3 54 22 -4 12 9 29 38 52 33 25 37 31 18 26
-14 -4 -28 -13 -32 -20 -4 -7 -24 -22 -43 -34 -29 -17 -35 -18 -35 -5 0 9 7
23 16 31 11 11 12 18 4 23 -20 12 2 40 41 50 40 11 62 30 35 30 -9 0 -16 5
-16 11 0 11 -17 9 -66 -6 -15 -5 -23 -2 -28 10 -7 20 10 39 44 48 36 10 58 27
43 34 -7 2 -13 11 -13 18 0 8 -8 18 -17 24 -10 5 -14 13 -10 17 12 12 42 -10
45 -32 5 -37 36 -45 81 -24 50 25 51 25 51 0 0 -11 -4 -20 -10 -20 -5 0 -10
-18 -10 -40 0 -22 5 -40 10 -40 6 0 10 18 10 40 l0 41 35 -7 c19 -3 51 -3 71
1 l37 6 -6 120 c-5 79 -3 118 3 114 6 -3 10 -15 10 -25 0 -49 43 -14 45 36 1
20 -1 21 -21 7 -17 -11 -27 -12 -43 -3 -32 17 -25 30 17 30 48 0 72 14 54 32
-6 6 -12 20 -12 30 0 14 8 18 40 18 22 0 40 4 40 9 0 8 -70 26 -74 19 -1 -2
-19 -24 -40 -51 -33 -42 -39 -45 -52 -32 -9 8 -22 15 -30 15 -8 0 -14 9 -14
20 0 11 5 20 10 20 6 0 19 -9 30 -20 11 -11 24 -20 29 -20 10 0 21 34 21 66 0
18 5 20 41 17 40 -3 40 -3 37 29 -2 24 -7 32 -20 30 -16 -2 -36 34 -24 45 3 3
1 14 -5 25 -7 13 -16 17 -30 13 -14 -5 -19 -2 -19 10 0 13 6 16 23 11 12 -3
25 -6 30 -6 4 0 7 -7 7 -15 0 -8 7 -15 15 -15 22 0 19 40 -2 40 -18 1 -63 32
-63 44 0 12 29 6 45 -10 17 -18 49 -11 43 9 -3 6 -14 13 -26 15 -12 2 -19 9
-16 16 4 9 20 12 54 8 36 -3 50 -1 50 8 0 10 -17 11 -65 8 -58 -5 -65 -4 -65
12 0 16 7 18 58 13 62 -6 66 6 5 16 -37 6 -38 7 -39 51 -1 25 0 36 2 25 3 -12
14 -26 25 -33 17 -11 21 -9 30 15 6 15 15 31 22 35 22 13 -3 21 -27 9 -13 -7
-33 -10 -44 -7 -11 4 -32 4 -46 0 -23 -5 -26 -11 -26 -47 0 -22 -2 -38 -5 -35
-8 7 -8 128 -1 135 4 4 12 1 18 -5 15 -15 74 -16 83 -2 3 6 17 10 31 10 29 0
31 15 3 30 -16 9 -26 8 -44 -4 -14 -9 -35 -16 -47 -15 -22 1 -22 1 2 8 22 6
23 8 7 14 -10 4 -27 2 -37 -3 -15 -8 -21 -5 -32 20 -15 35 -43 40 -51 9 -3
-12 -10 -18 -17 -14 -6 4 -18 1 -26 -6 -10 -8 -18 -9 -25 -2 -13 13 37 67 52
58 5 -4 21 3 35 14 18 14 34 19 51 15 21 -6 24 -3 21 12 -2 13 -12 19 -31 19
-15 1 -32 6 -39 13 -9 9 -9 12 1 12 7 0 9 5 6 10 -3 6 -15 10 -26 10 -12 0
-19 7 -19 18 0 14 8 18 34 18 18 0 41 8 50 17 10 9 13 17 7 17 -6 0 -11 5 -11
10 0 6 9 10 19 10 11 0 23 5 27 11 5 8 -1 10 -20 7 -20 -4 -26 -1 -26 13 0 13
-9 19 -31 21 -46 4 -60 31 -28 57 18 15 20 20 8 21 -13 0 -18 15 -23 71 -4 39
-10 78 -13 87 -4 10 -2 13 5 8 20 -12 13 13 -9 35 -14 14 -28 19 -45 15 -17
-5 -24 -2 -24 8 0 8 -5 16 -12 18 -9 3 -9 6 0 12 7 4 12 2 12 -3 0 -6 5 -11
10 -11 6 0 10 18 10 40 0 22 5 40 10 40 6 0 10 7 10 15 0 8 -9 15 -20 15 -15
0 -20 -7 -20 -27 0 -37 -14 -19 -16 20 -2 54 -3 56 -31 60 -18 3 -14 4 10 3
24 -1 37 3 37 11 0 7 -12 13 -26 13 -31 0 -24 16 10 22 20 4 25 0 30 -26 5
-24 9 -28 16 -16 5 8 10 27 10 43 0 40 26 34 34 -8 4 -20 13 -35 21 -35 23 0
29 21 7 27 -20 5 -34 44 -23 61 3 4 15 12 26 16 l20 7 -20 15 c-18 14 -20 13
-23 -4 -2 -13 -20 -25 -57 -38 -30 -10 -57 -15 -60 -12 -3 3 -7 18 -8 33 -2
24 3 30 32 37 31 8 32 11 18 25 -9 9 -20 12 -28 7 -9 -5 -8 -9 7 -15 17 -7 17
-8 -4 -8 -13 -1 -32 4 -43 10 -20 10 -20 11 -2 25 16 14 14 15 -24 10 -45 -6
-76 1 -67 15 7 12 82 9 108 -4 11 -5 22 -5 28 1 7 7 3 12 -10 16 -12 4 -23 17
-25 29 l-4 22 -2 -22 c-1 -21 -21 -34 -21 -14 0 5 -23 11 -50 13 -51 5 -76 17
-52 25 6 3 12 12 13 21 0 11 2 12 6 5 6 -15 79 -17 88 -3 4 6 -5 10 -19 10
-19 0 -27 7 -32 25 -3 14 -12 25 -20 25 -8 0 -14 6 -14 13 -1 7 -6 5 -14 -5
-7 -10 -21 -18 -30 -18 -19 0 -21 -15 -4 -26 6 -4 16 0 23 9 15 21 25 22 25 3
0 -8 -9 -18 -20 -21 -11 -3 -20 -11 -20 -16 0 -5 -7 -9 -15 -9 -9 0 -12 6 -9
15 4 8 1 15 -5 15 -15 0 -14 27 2 33 9 3 9 7 0 18 -9 12 -3 14 39 16 50 1 67
7 54 20 -4 4 -21 2 -38 -5 -26 -10 -36 -9 -55 3 -12 8 -26 15 -32 15 -14 0
-75 60 -67 67 3 3 6 3 6 -2 0 -4 7 -2 15 5 12 10 15 10 15 -1 0 -22 44 -38 58
-22 10 10 10 13 -2 13 -19 0 -28 28 -16 51 9 16 7 19 -15 19 -17 0 -25 -6 -25
-17 0 -15 -1 -15 -18 0 -22 20 -43 22 -60 5 -7 -7 -12 -8 -12 -2 0 23 22 32
51 22 25 -9 32 -6 58 19 26 26 28 34 23 81 -5 61 -22 70 -22 12 0 -48 -17 -54
-23 -7 l-3 32 -13 -32 c-7 -18 -15 -33 -17 -33 -13 0 -45 40 -39 49 10 18 25
13 25 -9 0 -11 5 -20 10 -20 27 0 2 51 -30 62 -10 3 -8 10 10 28 l23 23 8 -22
c12 -32 37 -37 60 -12 21 22 44 19 35 -5 -3 -8 1 -14 8 -14 8 0 22 -17 33 -38
15 -31 21 -36 31 -26 15 17 16 34 1 34 -8 0 -10 17 -6 53 5 50 4 53 -19 55
-13 1 -24 -3 -24 -9 0 -21 -34 -3 -41 21 l-6 25 -11 -27 c-8 -20 -19 -28 -37
-28 -26 0 -34 15 -12 23 10 4 10 7 0 18 -11 11 -13 10 -13 -4 0 -10 -8 -17
-20 -17 -16 0 -20 7 -20 36 0 39 -10 53 -55 77 -25 14 -27 16 -9 17 11 0 28 6
39 13 17 13 17 14 -4 20 -11 3 -24 1 -27 -4 -11 -19 -19 -8 -22 33 -3 49 -8
58 -30 58 -10 0 -13 -3 -6 -8 6 -4 10 -26 10 -49 -1 -39 -3 -43 -26 -42 -17 1
-19 3 -7 6 12 3 17 15 17 41 0 28 -3 33 -10 22 -5 -8 -10 -23 -10 -34 0 -15
-3 -16 -15 -6 -8 7 -15 19 -15 26 0 18 48 68 75 78 l20 8 -20 8 c-11 4 -21 3
-23 -1 -2 -5 -9 -9 -17 -9 -7 0 -18 -7 -25 -15 -18 -22 -38 -18 -42 7 -2 13
-11 24 -21 26 -29 6 -57 39 -57 67 0 29 8 32 26 8 13 -17 15 -17 27 -1 7 9 29
18 48 20 l34 3 -25 25 c-22 22 -25 23 -28 7 -5 -23 -34 -22 -50 3 -14 24 -32
26 -32 5 0 -8 -6 -15 -14 -15 -7 0 -16 -13 -19 -29 -4 -17 -15 -35 -27 -41
-19 -10 -20 -8 -20 29 0 22 7 46 15 55 8 8 15 19 15 25 0 15 -27 14 -33 -1 -4
-10 -7 -10 -15 0 -6 9 -30 12 -75 10 -37 -2 -62 -4 -57 -6 21 -7 -1 -72 -25
-72 -4 0 -2 7 5 15 17 20 2 38 -26 31 -19 -5 -24 -2 -24 14 0 20 -5 20 -1410
20 l-1410 0 0 -6400z m18200 6376 c0 -11 -19 -15 -25 -6 -3 5 1 10 9 10 9 0
16 -2 16 -4z m-15190 -15 c0 -12 -20 -25 -27 -18 -7 7 6 27 18 27 5 0 9 -4 9
-9z m-177 -39 c-1 -5 9 -13 23 -16 14 -4 23 -10 20 -15 -3 -4 -21 -3 -41 3
-33 10 -43 24 -28 40 9 9 28 1 26 -12z m139 0 c-7 -2 -12 -21 -12 -43 0 -21
-4 -39 -10 -39 -5 0 -10 -8 -10 -17 0 -15 -2 -16 -10 -3 -6 10 -6 16 0 18 6 2
10 14 10 27 0 34 21 76 33 68 8 -5 7 -8 -1 -11z m15275 -8 c-3 -3 -12 -4 -19
-1 -8 3 -5 6 6 6 11 1 17 -2 13 -5z m-15127 -84 c0 -5 -4 -10 -10 -10 -5 0
-10 -4 -10 -10 0 -5 12 -10 28 -10 41 0 60 -16 29 -24 -28 -7 -57 1 -57 15 0
5 -6 9 -14 9 -26 0 -28 20 -4 29 31 13 38 13 38 1z m15100 -4 c0 -8 -6 -17
-12 -20 -10 -5 -10 -7 0 -12 20 -10 14 -30 -14 -43 -29 -13 -48 -6 -24 9 12 7
11 10 -4 16 -11 4 -21 2 -26 -7 -5 -7 -12 -11 -15 -7 -4 4 8 23 26 42 33 36
69 48 69 22z m-15450 -6 c0 -5 -4 -10 -10 -10 -5 0 -10 5 -10 10 0 6 5 10 10
10 6 0 10 -4 10 -10z m210 -20 c0 -5 -4 -10 -10 -10 -5 0 -10 5 -10 10 0 6 5
10 10 10 6 0 10 -4 10 -10z m65 -20 c-3 -5 -10 -10 -16 -10 -5 0 -9 5 -9 10 0
6 7 10 16 10 8 0 12 -4 9 -10z m-320 -20 c-3 -5 -12 -10 -18 -10 -7 0 -6 4 3
10 19 12 23 12 15 0z m357 -35 c-2 -25 -8 -45 -13 -45 -10 0 -12 73 -2 83 14
15 18 5 15 -38z m15326 31 c-7 -8 -15 -12 -17 -11 -5 6 10 25 20 25 5 0 4 -6
-3 -14z m-15541 -2 c-3 -3 -12 -4 -19 -1 -8 3 -5 6 6 6 11 1 17 -2 13 -5z m90
0 c-3 -3 -12 -4 -19 -1 -8 3 -5 6 6 6 11 1 17 -2 13 -5z m182 -15 c10 6 23 6
31 1 12 -7 11 -10 -5 -16 -11 -4 -28 -16 -37 -27 -17 -19 -18 -19 -17 24 1 24
3 36 6 27 3 -14 9 -16 22 -9z m71 11 c0 -5 -2 -10 -4 -10 -3 0 -8 5 -11 10 -3
6 -1 10 4 10 6 0 11 -4 11 -10z m-30 -75 c0 -8 -3 -15 -6 -15 -3 0 -12 7 -20
15 -14 13 -13 15 5 15 12 0 21 -6 21 -15z m15140 -5 c0 -16 -51 -33 -63 -21
-7 7 -6 12 4 15 8 2 21 7 29 9 24 8 30 8 30 -3z m-15055 -30 c18 -8 17 -9 -7
-9 -16 -1 -28 4 -28 9 0 12 8 12 35 0z m-105 -30 c0 -5 -4 -10 -10 -10 -5 0
-10 5 -10 10 0 6 5 10 10 10 6 0 10 -4 10 -10z m88 -7 c-10 -2 -26 -2 -35 0
-10 3 -2 5 17 5 19 0 27 -2 18 -5z m69 1 c-3 -3 -12 -4 -19 -1 -8 3 -5 6 6 6
11 1 17 -2 13 -5z m-129 -16 c7 -7 12 -15 12 -18 0 -13 -47 -28 -61 -20 -11 7
-10 13 5 29 22 24 28 25 44 9z m15192 1 c0 -6 -6 -9 -12 -6 -7 2 -21 -2 -30
-11 -16 -14 -18 -13 -18 6 0 18 6 22 30 22 17 0 30 -5 30 -11z m27 -31 c-3 -8
-6 -5 -6 6 -1 11 2 17 5 13 3 -3 4 -12 1 -19z m-15592 -8 c3 -5 1 -10 -4 -10
-6 0 -11 5 -11 10 0 6 2 10 4 10 3 0 8 -4 11 -10z m775 -95 c0 -8 -6 -15 -14
-15 -8 0 -16 7 -20 15 -4 10 1 15 14 15 11 0 20 -7 20 -15z m-500 -25 c0 -5
-2 -10 -4 -10 -3 0 -8 5 -11 10 -3 6 -1 10 4 10 6 0 11 -4 11 -10z m15215 -45
c0 -10 -5 -20 -11 -22 -13 -4 -27 24 -18 38 9 15 29 4 29 -16z m-15098 -17
c-3 -8 -6 -5 -6 6 -1 11 2 17 5 13 3 -3 4 -12 1 -19z m15238 -8 c3 -5 2 -10
-4 -10 -5 0 -13 5 -16 10 -3 6 -2 10 4 10 5 0 13 -4 16 -10z m-15030 -21 c11
-16 -1 -22 -30 -15 -14 4 -23 11 -20 16 8 13 42 13 50 -1z m15005 -59 c-30 -8
-58 -1 -40 10 6 4 23 5 38 2 l27 -6 -25 -6z m-50 -70 c0 -5 -7 -10 -16 -10 -8
0 -12 5 -9 10 3 6 10 10 16 10 5 0 9 -4 9 -10z m-14930 -50 c0 -5 -9 -10 -20
-10 -11 0 -20 5 -20 10 0 6 9 10 20 10 11 0 20 -4 20 -10z m15003 3 c-7 -2
-21 -2 -30 0 -10 3 -4 5 12 5 17 0 24 -2 18 -5z m-15166 -9 c-3 -3 -12 -4 -19
-1 -8 3 -5 6 6 6 11 1 17 -2 13 -5z m15223 -4 c0 -5 -4 -10 -10 -10 -5 0 -10
5 -10 10 0 6 5 10 10 10 6 0 10 -4 10 -10z m-63 -25 c0 -17 0 -17 -21 -9 -22
8 -20 24 2 24 10 0 19 -7 19 -15z m-15017 -30 c0 -23 -27 -29 -45 -12 -16 16
-16 16 38 26 4 0 7 -6 7 -14z m14907 -27 c-3 -7 -5 -2 -5 12 0 14 2 19 5 13 2
-7 2 -19 0 -25z m113 2 c0 -5 -7 -10 -15 -10 -8 0 -15 5 -15 10 0 6 7 10 15
10 8 0 15 -4 15 -10z m-14999 -63 l-5 -32 -7 35 c-8 36 -2 60 10 41 4 -6 5
-26 2 -44z m59 23 c0 -5 -2 -10 -4 -10 -3 0 -8 5 -11 10 -3 6 -1 10 4 10 6 0
11 -4 11 -10z m14980 -40 c0 -5 -5 -10 -11 -10 -5 0 -7 5 -4 10 3 6 8 10 11
10 2 0 4 -4 4 -10z m-15000 -10 c0 -5 -4 -10 -10 -10 -5 0 -10 5 -10 10 0 6 5
10 10 10 6 0 10 -4 10 -10z m60 0 c0 -5 -4 -10 -10 -10 -5 0 -10 5 -10 10 0 6
5 10 10 10 6 0 10 -4 10 -10z m14860 0 c0 -5 7 -10 15 -10 8 0 15 -7 15 -16 0
-14 -1 -14 -16 0 -8 9 -20 16 -25 16 -5 0 -9 5 -9 10 0 6 5 10 10 10 6 0 10
-4 10 -10z m-14816 -6 c23 -9 20 -23 -4 -17 -11 3 -20 9 -20 14 0 11 3 11 24
3z m-14 -44 c0 -5 -4 -10 -10 -10 -5 0 -10 5 -10 10 0 6 5 10 10 10 6 0 10 -4
10 -10z m14917 -22 c-3 -8 -6 -5 -6 6 -1 11 2 17 5 13 3 -3 4 -12 1 -19z
m-14947 -3 c0 -8 -4 -15 -10 -15 -5 0 -10 7 -10 15 0 8 5 15 10 15 6 0 10 -7
10 -15z m60 1 c0 -8 -9 -18 -20 -21 -15 -5 -20 -15 -20 -45 0 -28 -5 -39 -18
-42 -15 -4 -17 0 -12 41 4 38 9 47 28 49 12 2 22 10 22 18 0 8 5 14 10 14 6 0
10 -6 10 -14z m14987 -12 c-3 -3 -12 -4 -19 -1 -8 3 -5 6 6 6 11 1 17 -2 13
-5z m-14899 -21 c0 -5 2 -16 7 -26 4 -11 3 -23 -4 -30 -8 -8 -11 -7 -11 5 0 9
-13 18 -32 23 l-33 7 35 13 c19 7 36 14 38 14 1 1 1 -2 0 -6z m14759 -19 c-3
-3 -12 -4 -19 -1 -8 3 -5 6 6 6 11 1 17 -2 13 -5z m-14797 -50 c0 -2 -11 -4
-25 -4 -14 0 -25 4 -25 9 0 4 11 6 25 3 14 -2 25 -6 25 -8z m57 -10 c-3 -3
-12 -4 -19 -1 -8 3 -5 6 6 6 11 1 17 -2 13 -5z m14773 -79 c0 -3 -9 -14 -20
-25 -24 -24 -60 -27 -60 -5 0 9 9 15 25 15 14 0 25 5 25 10 0 6 7 10 15 10 8
0 15 -2 15 -5z m-14840 -35 c0 -16 -4 -30 -9 -30 -13 0 -21 27 -15 45 10 25
24 17 24 -15z m78 -8 c2 -7 -6 -12 -17 -12 -21 0 -27 11 -14 24 9 9 26 2 31
-12z m14782 8 c0 -5 -4 -10 -10 -10 -5 0 -10 5 -10 10 0 6 5 10 10 10 6 0 10
-4 10 -10z m-15063 -36 c-3 -3 -12 -4 -19 -1 -8 3 -5 6 6 6 11 1 17 -2 13 -5z
m263 -8 c0 -3 -4 -8 -10 -11 -5 -3 -10 -1 -10 4 0 6 5 11 10 11 6 0 10 -2 10
-4z m14780 -6 c0 -5 -2 -10 -4 -10 -3 0 -8 5 -11 10 -3 6 -1 10 4 10 6 0 11
-4 11 -10z m-14744 -21 c10 -17 -13 -36 -27 -22 -12 12 -4 33 11 33 5 0 12 -5
16 -11z m-36 -59 c0 -10 -4 -22 -10 -25 -6 -4 -10 7 -10 25 0 18 4 29 10 25 6
-3 10 -15 10 -25z m14813 -27 c-7 -2 -19 -2 -25 0 -7 3 -2 5 12 5 14 0 19 -2
13 -5z m-14720 -31 c18 -16 24 -82 7 -82 -5 0 -10 14 -10 30 0 17 -4 30 -10
30 -5 0 -10 -13 -10 -30 0 -46 -17 -36 -24 15 -11 67 1 76 47 37z m14783 -7
c14 -13 14 -15 0 -15 -9 0 -16 4 -16 9 0 5 -12 12 -27 14 l-28 4 28 2 c16 0
35 -6 43 -14z m-14866 -55 c0 -20 -5 -30 -14 -30 -12 0 -13 6 -5 30 6 17 13
30 15 30 2 0 4 -13 4 -30z m-55 0 c3 -5 1 -10 -4 -10 -6 0 -11 5 -11 10 0 6 2
10 4 10 3 0 8 -4 11 -10z m14905 0 c0 -5 -4 -10 -10 -10 -5 0 -10 5 -10 10 0
6 5 10 10 10 6 0 10 -4 10 -10z m77 -26 c-3 -3 -12 -4 -19 -1 -8 3 -5 6 6 6
11 1 17 -2 13 -5z m-14860 -20 c3 -8 1 -20 -6 -27 -8 -8 -11 -7 -11 6 0 23
-17 21 -25 -3 -8 -24 -23 -26 -32 -5 -6 18 23 44 50 45 10 0 20 -7 24 -16z
m14787 -8 c-3 -9 -10 -16 -15 -16 -5 0 -4 9 3 20 14 22 21 20 12 -4z m-14734
-7 c0 -5 -7 -9 -15 -9 -15 0 -20 12 -9 23 8 8 24 -1 24 -14z m-236 -52 c6 -5
0 -5 -14 -1 -33 9 -34 10 -26 31 7 17 8 17 18 -2 6 -11 16 -24 22 -28z m241
13 c3 -5 -3 -10 -15 -10 -12 0 -18 5 -15 10 3 6 10 10 15 10 5 0 12 -4 15 -10z
m-70 -10 c-3 -5 -18 -9 -33 -9 l-27 1 30 8 c17 4 31 8 33 9 2 0 0 -3 -3 -9z
m-85 -35 c0 -8 -4 -15 -9 -15 -13 0 -22 16 -14 24 11 11 23 6 23 -9z m80 -5
c0 -5 -11 -10 -25 -10 -14 0 -25 5 -25 10 0 6 11 10 25 10 14 0 25 -4 25 -10z
m7 -80 c1 -25 -1 -38 -3 -29 -3 9 -17 22 -32 30 l-27 13 28 4 c33 4 36 19 5
25 -20 3 -20 4 2 3 23 -1 25 -5 27 -46z m53 0 c0 -22 -4 -40 -10 -40 -5 0 -10
18 -10 40 0 22 5 40 10 40 6 0 10 -18 10 -40z m14710 36 c0 -2 3 -11 6 -20 5
-12 0 -16 -20 -16 -24 0 -35 18 -19 33 7 8 33 10 33 3z m-14880 -66 c0 -5 -4
-10 -10 -10 -5 0 -10 5 -10 10 0 6 5 10 10 10 6 0 10 -4 10 -10z m78 -7 c-10
-2 -26 -2 -35 0 -10 3 -2 5 17 5 19 0 27 -2 18 -5z m105 -60 c9 -27 17 -58 17
-71 0 -22 -1 -22 -28 6 -23 24 -27 35 -24 70 2 23 7 42 11 42 4 0 15 -21 24
-47z m14707 -13 c0 -5 -7 -10 -16 -10 -8 0 -12 5 -9 10 3 6 10 10 16 10 5 0 9
-4 9 -10z m-14840 -130 c0 -5 -4 -10 -10 -10 -5 0 -10 5 -10 10 0 6 5 10 10
10 6 0 10 -4 10 -10z m110 -80 c0 -22 -4 -40 -10 -40 -5 0 -10 18 -10 40 0 22
5 40 10 40 6 0 10 -18 10 -40z m80 25 c0 -8 -7 -15 -15 -15 -8 0 -15 7 -15 15
0 8 7 15 15 15 8 0 15 -7 15 -15z m-30 -45 c0 -11 -4 -20 -10 -20 -5 0 -10 -7
-10 -17 0 -9 -2 -14 -5 -11 -8 8 6 68 16 68 5 0 9 -9 9 -20z m-93 -42 c-3 -8
-6 -5 -6 6 -1 11 2 17 5 13 3 -3 4 -12 1 -19z m43 -43 c0 -8 -4 -15 -10 -15
-5 0 -10 7 -10 15 0 8 5 15 10 15 6 0 10 -7 10 -15z m14910 -17 c0 -16 -3 -19
-11 -11 -6 6 -8 16 -5 22 11 17 16 13 16 -11z m-15047 -5 c-7 -2 -19 -2 -25 0
-7 3 -2 5 12 5 14 0 19 -2 13 -5z m237 -3 c0 -5 -7 -10 -15 -10 -8 0 -15 -9
-15 -20 0 -11 -7 -20 -15 -20 -8 0 -15 9 -15 20 0 11 7 20 15 20 8 0 15 5 15
10 0 6 7 10 15 10 8 0 15 -4 15 -10z m-140 -70 c5 0 7 -7 3 -16 -5 -13 -7 -13
-14 -2 -5 7 -8 22 -8 33 1 17 2 17 6 3 2 -10 8 -18 13 -18z m140 11 c0 -5 8
-12 18 -14 11 -3 8 -5 -9 -6 -14 0 -34 -10 -44 -21 -23 -26 -29 -25 -43 5 -12
26 -8 29 31 26 9 -1 17 3 17 8 0 6 7 11 15 11 8 0 15 -4 15 -9z m14795 -21
c-3 -5 -12 -7 -20 -3 -21 7 -19 13 6 13 11 0 18 -4 14 -10z m-14782 -60 c-3
-11 -12 -20 -21 -20 -13 0 -12 3 3 20 10 11 19 20 21 20 1 0 0 -9 -3 -20z
m14817 16 c0 -3 -4 -8 -10 -11 -5 -3 -10 -1 -10 4 0 6 5 11 10 11 6 0 10 -2
10 -4z m-15045 -76 c3 -5 1 -10 -4 -10 -6 0 -11 5 -11 10 0 6 2 10 4 10 3 0 8
-4 11 -10z m134 -11 c-15 -9 -32 -2 -24 11 3 5 13 6 21 3 12 -4 13 -8 3 -14z
m130 -18 c-3 -6 -10 -7 -18 -2 -7 5 -10 14 -6 21 9 14 29 -2 24 -19z m-42 3
c-3 -3 -12 -4 -19 -1 -8 3 -5 6 6 6 11 1 17 -2 13 -5z m14743 -44 c0 -10 -4
-22 -10 -25 -5 -3 -10 -1 -10 4 0 6 -7 11 -15 11 -19 0 -19 -11 -2 -34 11 -14
11 -24 3 -42 -12 -25 -21 -30 -31 -15 -3 6 2 14 12 20 16 8 15 11 -7 31 -17
14 -21 23 -12 26 6 3 12 14 12 24 0 12 9 20 23 22 29 5 37 1 37 -22z m-14720
5 c0 -8 -4 -15 -10 -15 -5 0 -10 7 -10 15 0 8 5 15 10 15 6 0 10 -7 10 -15z
m60 -10 c0 -8 -4 -15 -10 -15 -5 0 -10 7 -10 15 0 8 5 15 10 15 6 0 10 -7 10
-15z m14690 -65 c0 -5 -4 -10 -10 -10 -5 0 -10 5 -10 10 0 6 5 10 10 10 6 0
10 -4 10 -10z m-15170 -72 c0 -16 -3 -19 -11 -11 -6 6 -8 16 -5 22 11 17 16
13 16 -11z m170 12 c0 -13 -11 -13 -30 0 -12 8 -11 10 8 10 12 0 22 -4 22 -10z
m50 -6 c0 -8 -4 -12 -10 -9 -5 3 -10 10 -10 16 0 5 5 9 10 9 6 0 10 -7 10 -16z
m260 0 c0 -14 -3 -14 -15 -4 -8 7 -15 14 -15 16 0 2 7 4 15 4 8 0 15 -7 15
-16z m14545 -25 c4 -6 19 -7 36 -4 31 7 42 -11 13 -22 -8 -3 -13 -12 -10 -19
3 -8 0 -14 -8 -14 -14 0 -56 45 -56 60 0 13 17 13 25 -1z m-14865 -9 c0 -5 -4
-10 -10 -10 -5 0 -10 5 -10 10 0 6 5 10 10 10 6 0 10 -4 10 -10z m175 1 c3 -5
1 -12 -5 -16 -5 -3 -10 1 -10 9 0 18 6 21 15 7z m-70 -21 c3 -5 -1 -10 -9 -10
-9 0 -16 5 -16 10 0 6 4 10 9 10 6 0 13 -4 16 -10z m14860 -10 c-3 -5 -12 -10
-18 -10 -7 0 -6 4 3 10 19 12 23 12 15 0z m-15075 -10 c0 -5 -4 -10 -10 -10
-5 0 -10 5 -10 10 0 6 5 10 10 10 6 0 10 -4 10 -10z m337 4 c-3 -3 -12 -4 -19
-1 -8 3 -5 6 6 6 11 1 17 -2 13 -5z m14833 2 c0 -2 -7 -6 -15 -10 -8 -3 -15
-1 -15 4 0 6 7 10 15 10 8 0 15 -2 15 -4z m-15063 -28 c-3 -8 -6 -5 -6 6 -1
11 2 17 5 13 3 -3 4 -12 1 -19z m-62 -8 c3 -5 1 -10 -4 -10 -6 0 -11 5 -11 10
0 6 2 10 4 10 3 0 8 -4 11 -10z m203 -23 c2 -12 -3 -17 -17 -17 -12 0 -21 6
-21 13 0 31 32 34 38 4z m87 14 c8 -14 -30 -32 -49 -25 -30 11 -16 34 20 34
13 0 25 -4 29 -9z m14735 -21 c0 -5 -7 -10 -15 -10 -8 0 -15 5 -15 10 0 6 7
10 15 10 8 0 15 -4 15 -10z m-15137 -17 c-13 -2 -33 -2 -45 0 -13 2 -3 4 22 4
25 0 35 -2 23 -4z m315 -56 c2 -12 -3 -17 -17 -17 -12 0 -21 6 -21 13 0 31 32
34 38 4z m-113 -27 c-3 -5 -10 -10 -16 -10 -5 0 -9 5 -9 10 0 6 7 10 16 10 8
0 12 -4 9 -10z m55 0 c0 -5 -4 -10 -9 -10 -6 0 -13 5 -16 10 -3 6 1 10 9 10 9
0 16 -4 16 -10z m105 0 c-3 -5 -10 -10 -16 -10 -5 0 -9 5 -9 10 0 6 7 10 16
10 8 0 12 -4 9 -10z m53 -37 c-3 -24 -8 -28 -40 -31 -29 -2 -38 0 -38 12 0 9
6 16 14 16 7 0 19 7 26 15 21 25 42 18 38 -12z m-398 1 c0 -8 -5 -12 -10 -9
-6 4 -8 11 -5 16 9 14 15 11 15 -7z m87 -16 c-3 -8 -6 -5 -6 6 -1 11 2 17 5
13 3 -3 4 -12 1 -19z m-152 -8 c3 -5 1 -10 -4 -10 -6 0 -11 5 -11 10 0 6 2 10
4 10 3 0 8 -4 11 -10z m110 -31 c4 -11 5 -21 3 -22 -1 -1 -13 -8 -25 -15 -21
-11 -23 -10 -23 8 0 20 18 49 32 50 4 0 10 -9 13 -21z m15048 -12 c-3 -5 -10
-4 -15 1 -6 6 -7 16 -3 22 6 9 9 9 16 -1 4 -7 5 -17 2 -22z m17 -34 c0 -15 2
-16 10 -3 8 13 10 13 10 -1 0 -21 -9 -29 -26 -22 -16 6 -19 43 -4 43 6 0 10
-8 10 -17z m-15260 -17 c0 -3 -4 -8 -10 -11 -5 -3 -10 -1 -10 4 0 6 5 11 10
11 6 0 10 -2 10 -4z m226 -69 c-3 -12 -6 -37 -6 -54 0 -23 -5 -33 -15 -33 -11
0 -15 11 -15 40 0 22 -4 40 -10 40 -5 0 -10 -20 -10 -44 0 -25 -4 -48 -10 -51
-6 -4 -10 13 -10 44 0 28 5 51 10 51 6 0 15 11 20 25 9 22 13 24 31 15 15 -9
19 -18 15 -33z m-159 1 c-3 -7 -5 -2 -5 12 0 14 2 19 5 13 2 -7 2 -19 0 -25z
m15207 6 c4 -10 1 -14 -6 -12 -15 5 -23 28 -10 28 5 0 13 -7 16 -16z m-15363
-17 c-10 -9 -11 -8 -5 6 3 10 9 15 12 12 3 -3 0 -11 -7 -18z m15276 -9 c7 17
33 15 33 -3 0 -8 11 -17 25 -21 14 -3 25 -13 25 -23 0 -9 5 -22 12 -29 6 -6 8
-15 3 -19 -4 -5 -10 -2 -12 5 -3 6 -12 12 -21 12 -9 0 -30 7 -46 15 -18 10
-32 12 -35 6 -4 -5 -6 8 -6 29 0 24 3 34 8 27 7 -9 10 -9 14 1z m-37 -28 c0
-11 -4 -20 -9 -20 -14 0 -23 18 -16 30 10 17 25 11 25 -10z m227 -2 c-3 -8 -6
-5 -6 6 -1 11 2 17 5 13 3 -3 4 -12 1 -19z m-15307 -18 c0 -13 -11 -13 -30 0
-12 8 -11 10 8 10 12 0 22 -4 22 -10z m-197 -17 c-7 -2 -21 -2 -30 0 -10 3 -4
5 12 5 17 0 24 -2 18 -5z m35 -17 c-19 -14 -24 -46 -8 -46 6 0 10 5 10 10 0 6
5 10 10 10 6 0 10 -7 10 -15 0 -8 9 -15 20 -15 11 0 20 7 20 15 0 8 5 15 10
15 20 0 9 -30 -12 -34 -40 -7 -78 -4 -78 5 0 5 -7 9 -15 9 -8 0 -15 9 -15 20
0 11 7 20 15 20 8 0 15 5 15 10 0 6 8 10 18 10 16 -1 16 -1 0 -14z m15293 -9
c-6 -6 -11 -15 -11 -19 0 -12 34 -10 47 3 6 6 16 8 23 4 8 -5 6 -11 -7 -21
-13 -10 -14 -13 -4 -14 8 0 11 -3 8 -6 -4 -4 -13 -1 -21 5 -11 9 -20 10 -35 1
-20 -10 -21 -8 -21 29 0 33 3 39 16 34 11 -4 12 -9 5 -16z m149 3 c0 -5 -9
-10 -20 -10 -11 0 -20 5 -20 10 0 6 9 10 20 10 11 0 20 -4 20 -10z m-15390
-10 c0 -5 -4 -10 -10 -10 -5 0 -10 5 -10 10 0 6 5 10 10 10 6 0 10 -4 10 -10z
m-214 -47 c-11 -11 -17 4 -9 23 7 18 8 18 11 1 2 -10 1 -21 -2 -24z m15567 3
c4 -9 -2 -17 -14 -21 -27 -9 -34 0 -18 19 18 19 25 20 32 2z m-15486 -2 c-3
-3 -12 -4 -19 -1 -8 3 -5 6 6 6 11 1 17 -2 13 -5z m15394 -40 c8 -10 22 -14
41 -10 26 5 47 -7 30 -17 -14 -10 -102 16 -102 30 0 18 15 16 31 -3z m-15471
-4 c0 -5 -4 -10 -10 -10 -5 0 -10 5 -10 10 0 6 5 10 10 10 6 0 10 -4 10 -10z
m15560 -50 c0 -5 -4 -10 -9 -10 -6 0 -13 5 -16 10 -3 6 1 10 9 10 9 0 16 -4
16 -10z m-15560 -10 c0 -5 -7 -10 -15 -10 -8 0 -15 5 -15 10 0 6 7 10 15 10 8
0 15 -4 15 -10z m0 -40 c0 -5 -2 -10 -4 -10 -3 0 -8 5 -11 10 -3 6 -1 10 4 10
6 0 11 -4 11 -10z m120 -30 c0 -5 -4 -10 -9 -10 -6 0 -13 5 -16 10 -3 6 1 10
9 10 9 0 16 -4 16 -10z m15327 -5 c10 -11 12 -19 5 -28 -5 -7 -11 -20 -13 -29
-3 -13 -8 -15 -19 -8 -13 9 -12 12 5 25 16 13 18 19 7 35 -15 24 -7 26 15 5z
m-15367 -10 c0 -8 -7 -15 -15 -15 -16 0 -20 12 -8 23 11 12 23 8 23 -8z m160
-5 c0 -5 -18 -10 -40 -10 -22 0 -40 5 -40 10 0 6 18 10 40 10 22 0 40 -4 40
-10z m-98 -81 c-3 -22 -7 -27 -13 -18 -13 21 -11 49 4 49 9 0 12 -10 9 -31z
m332 -151 c8 -13 8 -23 -1 -37 -7 -11 -9 -21 -5 -24 4 -2 1 -2 -6 0 -8 1 -26
3 -40 3 -23 1 -25 2 -9 11 9 5 17 19 17 29 0 10 -8 24 -17 30 -15 8 -12 10 16
8 19 -2 39 -11 45 -20z m14886 -24 c0 -27 -4 -43 -10 -39 -5 3 -10 24 -10 46
0 21 5 39 10 39 6 0 10 -21 10 -46z m43 39 c-7 -2 -19 -2 -25 0 -7 3 -2 5 12
5 14 0 19 -2 13 -5z m-15003 -33 c0 -5 -4 -10 -10 -10 -5 0 -10 5 -10 10 0 6
5 10 10 10 6 0 10 -4 10 -10z m15003 -37 c-7 -2 -19 -2 -25 0 -7 3 -2 5 12 5
14 0 19 -2 13 -5z m130 -23 c3 -11 1 -20 -4 -20 -5 0 -9 9 -9 20 0 11 2 20 4
20 2 0 6 -9 9 -20z m-14888 -20 c-3 -5 -12 -10 -18 -10 -7 0 -24 -7 -39 -14
-21 -11 -28 -12 -28 -2 0 6 15 17 33 23 43 14 59 15 52 3z m14655 -4 c0 -8 -5
-16 -12 -18 -8 -3 -7 -11 5 -28 21 -30 21 -40 2 -40 -8 0 -15 -9 -15 -20 0
-11 -3 -20 -8 -20 -4 0 -6 20 -4 45 3 28 0 45 -7 45 -16 0 -14 16 5 34 19 20
34 20 34 2z m-14755 -46 c-3 -5 -10 -10 -16 -10 -5 0 -9 5 -9 10 0 6 7 10 16
10 8 0 12 -4 9 -10z m14815 -39 c0 -11 3 -28 6 -38 3 -10 -3 -4 -15 12 -25 36
-26 45 -6 45 8 0 15 -9 15 -19z m-23 -37 c-3 -3 -12 -4 -19 -1 -8 3 -5 6 6 6
11 1 17 -2 13 -5z m83 -14 c0 -11 -4 -20 -10 -20 -19 0 -10 -39 12 -54 15 -11
17 -16 8 -16 -24 1 -50 26 -50 49 0 11 5 21 10 21 6 0 10 9 10 20 0 11 5 20
10 20 6 0 10 -9 10 -20z m28 -44 c-7 -8 -15 -12 -17 -11 -5 6 10 25 20 25 5 0
4 -6 -3 -14z m-98 -54 c0 -3 -7 -14 -17 -24 -15 -17 -15 -18 5 -18 13 0 22 6
22 15 0 8 4 15 9 15 17 0 22 -19 12 -38 -7 -14 -18 -17 -45 -14 -34 4 -36 3
-36 -27 0 -36 -10 -40 -28 -11 -12 20 -52 28 -52 10 0 -5 -10 -10 -22 -9 -13
0 -17 3 -10 6 6 2 12 11 12 18 0 18 38 29 54 16 18 -15 48 -3 44 18 -2 12 -17
17 -66 19 -46 2 -62 7 -62 17 0 8 7 15 15 15 8 0 15 -4 15 -10 0 -15 71 -12
99 4 23 13 51 12 51 -2z m115 -32 c3 -5 -1 -10 -9 -10 -9 0 -16 5 -16 10 0 6
4 10 9 10 6 0 13 -4 16 -10z m-14176 -9 c10 -7 7 -9 -12 -8 -14 1 -23 5 -20
10 6 9 15 9 32 -2z m56 -11 c3 -5 -1 -10 -10 -10 -9 0 -13 5 -10 10 3 6 8 10
10 10 2 0 7 -4 10 -10z m13908 -67 c-7 -2 -19 -2 -25 0 -7 3 -2 5 12 5 14 0
19 -2 13 -5z m-67 -35 c4 -18 9 -27 11 -20 7 19 33 14 33 -7 0 -11 6 -21 13
-24 6 -2 0 -6 -15 -9 -16 -3 -28 -1 -28 3 0 5 -9 9 -20 9 -17 0 -20 7 -20 40
0 48 16 53 26 8z m3 -89 c-14 -8 -49 6 -49 21 0 5 14 4 31 -2 22 -7 27 -13 18
-19z m95 -14 c3 -8 13 -15 22 -15 10 0 14 -3 11 -6 -4 -4 -27 -1 -52 6 -32 9
-42 16 -33 21 21 13 45 10 52 -6z m-12898 -112 c-11 -11 -19 6 -11 24 8 17 8
17 12 0 3 -10 2 -21 -1 -24z m12734 -63 c0 -5 -5 -10 -11 -10 -5 0 -7 5 -4 10
3 6 8 10 11 10 2 0 4 -4 4 -10z m190 -4 c0 -2 -7 -6 -15 -10 -8 -3 -15 -1 -15
4 0 6 7 10 15 10 8 0 15 -2 15 -4z m-190 -42 c0 -8 -5 -12 -10 -9 -6 4 -8 11
-5 16 9 14 15 11 15 -7z m-40 -34 c0 -5 -9 -10 -21 -10 -16 0 -19 -4 -13 -22
6 -21 6 -21 -10 -5 -14 14 -15 19 -4 31 15 17 48 21 48 6z m45 -17 c-9 -8 -18
-13 -21 -10 -8 8 19 36 29 30 4 -2 0 -11 -8 -20z m-75 -88 c0 -8 -2 -15 -4
-15 -2 0 -6 7 -10 15 -3 8 -1 15 4 15 6 0 10 -7 10 -15z m50 0 c0 -8 -4 -15
-10 -15 -5 0 -10 7 -10 15 0 8 5 15 10 15 6 0 10 -7 10 -15z m-62 -80 c-2 -2
-15 -1 -28 2 l-25 7 25 6 c22 6 39 -4 28 -15z m2 -25 c0 -5 -8 -10 -17 -10
-15 0 -16 2 -3 10 19 12 20 12 20 0z m4 -55 c-4 -8 -11 -15 -16 -15 -6 0 -5 6
2 15 7 8 14 15 16 15 2 0 1 -7 -2 -15z m-164 -25 c0 -11 -4 -20 -9 -20 -14 0
-23 18 -16 30 10 17 25 11 25 -10z m50 -50 c0 -5 -4 -10 -10 -10 -5 0 -10 5
-10 10 0 6 5 10 10 10 6 0 10 -4 10 -10z m-232 -52 c7 -7 12 -31 12 -55 0 -40
2 -43 27 -43 14 0 35 7 45 17 16 14 18 14 18 0 0 -20 -49 -31 -106 -22 l-44 6
0 43 c0 37 13 66 30 66 3 0 11 -5 18 -12z m182 -43 c0 -30 -4 -55 -10 -55 -11
0 -14 93 -3 103 12 12 13 8 13 -48z m-122 -132 c-10 -2 -18 -14 -18 -26 0 -12
-5 -29 -10 -37 -8 -13 -10 -12 -10 3 0 9 -7 17 -15 17 -19 0 -19 6 3 29 9 11
28 19 42 19 16 0 19 -2 8 -5z m-198 -89 c0 -8 -5 -12 -10 -9 -6 4 -8 11 -5 16
9 14 15 11 15 -7z m127 10 c-3 -3 -12 -4 -19 -1 -8 3 -5 6 6 6 11 1 17 -2 13
-5z m233 -14 c0 -5 -4 -10 -9 -10 -6 0 -13 5 -16 10 -3 6 1 10 9 10 9 0 16 -4
16 -10z m-385 -60 c3 -5 -3 -10 -14 -10 -12 0 -21 -4 -21 -10 0 -5 -7 -10 -15
-10 -18 0 -19 6 -2 25 14 17 43 19 52 5z m21 -67 c-11 -11 -19 6 -11 24 8 17
8 17 12 0 3 -10 2 -21 -1 -24z m54 17 c0 -5 -7 -10 -15 -10 -8 0 -15 5 -15 10
0 6 7 10 15 10 8 0 15 -4 15 -10z m-10580 -15 c0 -8 -5 -15 -11 -15 -5 0 -7
-6 -3 -12 5 -10 4 -10 -6 -1 -14 13 -7 43 10 43 5 0 10 -7 10 -15z m10059
-104 c20 -13 18 -146 -3 -166 -17 -17 -36 -20 -36 -5 0 6 -16 10 -36 10 -24 0
-34 4 -31 13 2 6 15 11 29 9 19 -2 32 6 52 33 16 20 25 39 22 42 -3 4 -6 1 -6
-5 0 -27 -20 -9 -29 25 -8 28 -7 39 2 45 15 10 19 10 36 -1z m123 -13 c-9 -9
-15 -9 -24 0 -9 9 -7 12 12 12 19 0 21 -3 12 -12z m145 0 c-2 -7 -11 -12 -21
-10 -9 2 -16 -2 -16 -8 0 -6 -4 -8 -10 -5 -22 14 -10 35 21 35 20 0 29 -4 26
-12z m93 8 c0 -11 -19 -15 -25 -6 -3 5 1 10 9 10 9 0 16 -2 16 -4z m-110 -85
c0 -12 -30 -22 -43 -14 -7 4 -3 9 9 14 26 10 34 10 34 0z m-75 -51 c3 -5 -1
-10 -9 -10 -9 0 -16 5 -16 10 0 6 4 10 9 10 6 0 13 -4 16 -10z m55 -55 c0 -8
-4 -15 -10 -15 -5 0 -10 7 -10 15 0 8 5 15 10 15 6 0 10 -7 10 -15z m-453 -41
c-3 -3 -12 -4 -19 -1 -8 3 -5 6 6 6 11 1 17 -2 13 -5z m128 -4 c-3 -5 -19 -10
-35 -10 -16 0 -32 5 -35 10 -4 6 10 10 35 10 25 0 39 -4 35 -10z m30 -50 c-3
-5 -10 -10 -16 -10 -5 0 -9 5 -9 10 0 6 7 10 16 10 8 0 12 -4 9 -10z m55 -30
c0 -5 -4 -10 -10 -10 -5 0 -10 5 -10 10 0 6 5 10 10 10 6 0 10 -4 10 -10z
m-65 -20 c3 -5 1 -10 -4 -10 -6 0 -11 5 -11 10 0 6 2 10 4 10 3 0 8 -4 11 -10z
m-95 -50 c0 -5 -7 -10 -16 -10 -8 0 -12 5 -9 10 3 6 10 10 16 10 5 0 9 -4 9
-10z m-293 -6 c-3 -3 -12 -4 -19 -1 -8 3 -5 6 6 6 11 1 17 -2 13 -5z m120 -17
c-6 -19 -24 -18 -29 1 -4 15 -1 18 14 14 10 -2 17 -9 15 -15z m286 16 c-7 -2
-19 -2 -25 0 -7 3 -2 5 12 5 14 0 19 -2 13 -5z m-335 -28 c18 -39 14 -51 -7
-26 -16 18 -26 21 -55 15 -43 -8 -49 10 -8 24 44 16 58 14 70 -13z m99 19 c-3
-3 -12 -4 -19 -1 -8 3 -5 6 6 6 11 1 17 -2 13 -5z m288 -4 c-3 -5 -12 -10 -18
-10 -7 0 -6 4 3 10 19 12 23 12 15 0z m-405 -70 c0 -5 -7 -7 -15 -4 -8 4 -15
8 -15 10 0 2 7 4 15 4 8 0 15 -4 15 -10z m-160 -40 c0 -13 -5 -18 -15 -14 -8
4 -15 12 -15 20 0 8 7 14 15 14 8 0 15 -9 15 -20z m-77 -20 c6 -23 -10 -26
-35 -6 -20 14 -14 26 13 26 9 0 19 -9 22 -20z m-143 -165 c10 -12 10 -15 -4
-15 -9 0 -16 7 -16 15 0 8 2 15 4 15 2 0 9 -7 16 -15z m-6070 -15 c0 -11 -4
-20 -10 -20 -5 0 -10 9 -10 20 0 11 5 20 10 20 6 0 10 -9 10 -20z m-1539 -73
c-8 -8 -11 -8 -11 1 0 7 -7 12 -15 12 -8 0 -15 5 -15 11 0 6 7 9 15 5 8 -3 15
0 15 7 0 7 5 4 11 -6 8 -14 8 -22 0 -30z m7399 23 c8 -5 11 -10 5 -10 -5 0
-20 -3 -32 -6 -17 -5 -23 -2 -23 10 0 18 27 21 50 6z m50 -15 c10 -12 10 -15
-4 -15 -9 0 -16 7 -16 15 0 8 2 15 4 15 2 0 9 -7 16 -15z m-5656 -30 c-4 -8
-8 -15 -10 -15 -2 0 -4 7 -4 15 0 8 4 15 10 15 5 0 7 -7 4 -15z m5736 11 c0
-3 -4 -8 -10 -11 -5 -3 -10 -1 -10 4 0 6 5 11 10 11 6 0 10 -2 10 -4z m-140
-67 c0 -5 -4 -9 -8 -9 -5 0 -14 -10 -20 -22 -10 -21 -11 -20 -11 14 -1 31 2
35 19 31 11 -3 20 -9 20 -14z m-7127 -73 c15 -12 16 -14 2 -20 -9 -3 -15 0
-15 9 0 7 -8 16 -17 18 -13 3 -14 5 -3 6 8 0 23 -6 33 -13z m33 -53 c-11 -11
-19 6 -11 24 8 17 8 17 12 0 3 -10 2 -21 -1 -24z m6974 -33 c0 -5 -8 -10 -17
-10 -15 0 -16 2 -3 10 19 12 20 12 20 0z m-80 -35 c0 -22 -3 -24 -19 -16 -31
17 -34 41 -6 41 20 0 25 -5 25 -25z m-5940 -45 c0 -5 -5 -10 -11 -10 -5 0 -7
5 -4 10 3 6 8 10 11 10 2 0 4 -4 4 -10z m40 -14 c0 -3 -4 -8 -10 -11 -5 -3
-10 -1 -10 4 0 6 5 11 10 11 6 0 10 -2 10 -4z m5900 -17 c0 -25 -33 -22 -38 4
-2 12 3 17 17 17 15 0 21 -6 21 -21z m-5230 -44 c-7 -9 -15 -13 -18 -10 -3 2
1 11 8 20 7 9 15 13 18 10 3 -2 -1 -11 -8 -20z m-933 -1 c-3 -3 -12 -4 -19 -1
-8 3 -5 6 6 6 11 1 17 -2 13 -5z m6183 -49 c0 -8 -4 -15 -10 -15 -5 0 -10 7
-10 15 0 8 5 15 10 15 6 0 10 -7 10 -15z m-5095 -205 c3 -5 2 -10 -4 -10 -5 0
-13 5 -16 10 -3 6 -2 10 4 10 5 0 13 -4 16 -10z m4915 -20 c0 -5 -5 -10 -11
-10 -5 0 -7 5 -4 10 3 6 8 10 11 10 2 0 4 -4 4 -10z m-130 -20 c0 -5 -7 -10
-15 -10 -8 0 -15 5 -15 10 0 6 7 10 15 10 8 0 15 -4 15 -10z m47 -36 c-3 -3
-12 -4 -19 -1 -8 3 -5 6 6 6 11 1 17 -2 13 -5z m-339 -21 c-2 -10 -10 -18 -18
-18 -8 0 -16 8 -18 18 -2 12 3 17 18 17 15 0 20 -5 18 -17z m72 -23 c0 -22 -4
-40 -10 -40 -5 0 -10 18 -10 40 0 22 5 40 10 40 6 0 10 -18 10 -40z m148 -13
c3 -20 -1 -27 -14 -27 -14 0 -15 3 -6 12 8 8 8 17 1 31 -9 15 -8 18 3 15 7 -3
14 -17 16 -31z m-88 13 c0 -5 -7 -10 -15 -10 -8 0 -15 5 -15 10 0 6 7 10 15
10 8 0 15 -4 15 -10z m47 -36 c-3 -3 -12 -4 -19 -1 -8 3 -5 6 6 6 11 1 17 -2
13 -5z m-210 -10 c-3 -3 -12 -4 -19 -1 -8 3 -5 6 6 6 11 1 17 -2 13 -5z m53
-24 c0 -5 -4 -10 -9 -10 -6 0 -13 5 -16 10 -3 6 1 10 9 10 9 0 16 -4 16 -10z
m80 0 c0 -13 -11 -13 -30 0 -12 8 -11 10 8 10 12 0 22 -4 22 -10z m-135 -20
c3 -5 -1 -10 -9 -10 -9 0 -16 -4 -16 -10 0 -5 -7 -10 -15 -10 -8 0 -15 -7 -15
-15 0 -8 -7 -15 -15 -15 -8 0 -15 7 -15 15 0 8 6 15 13 15 8 0 22 9 32 20 20
22 31 25 40 10z m55 -30 c0 -5 -4 -10 -9 -10 -6 0 -13 5 -16 10 -3 6 1 10 9
10 9 0 16 -4 16 -10z m-290 -10 c0 -5 -7 -10 -15 -10 -8 0 -15 5 -15 10 0 6 7
10 15 10 8 0 15 -4 15 -10z m287 -46 c-3 -3 -12 -4 -19 -1 -8 3 -5 6 6 6 11 1
17 -2 13 -5z m-4007 -34 c0 -5 -7 -10 -15 -10 -8 0 -15 5 -15 10 0 6 7 10 15
10 8 0 15 -4 15 -10z m3290 2 c0 -4 18 -7 40 -7 22 0 40 3 40 7 0 5 7 8 17 8
15 0 15 -1 0 -18 -10 -10 -17 -24 -17 -30 0 -15 -35 -25 -60 -17 -11 4 -20 2
-20 -4 0 -6 -7 -11 -15 -11 -11 0 -15 11 -15 40 0 29 4 40 15 40 8 0 15 -3 15
-8z m160 -57 c0 -8 -7 -15 -16 -15 -14 0 -14 3 -4 15 7 8 14 15 16 15 2 0 4
-7 4 -15z m-2740 -25 c0 -5 -4 -10 -9 -10 -6 0 -13 5 -16 10 -3 6 1 10 9 10 9
0 16 -4 16 -10z m21 -17 c-12 -20 -14 -14 -5 12 4 9 9 14 11 11 3 -2 0 -13 -6
-23z m2583 12 c-4 -8 -10 -15 -15 -15 -5 0 -9 7 -9 15 0 8 7 15 15 15 9 0 12
-6 9 -15z m56 5 c0 -5 -2 -10 -4 -10 -3 0 -8 5 -11 10 -3 6 -1 10 4 10 6 0 11
-4 11 -10z m-2556 -42 c5 -24 3 -28 -14 -28 -23 0 -23 0 -10 36 12 31 15 30
24 -8z m2531 -18 c4 -6 -5 -10 -19 -10 -14 0 -26 5 -26 10 0 6 9 10 19 10 11
0 23 -4 26 -10z m-245 -50 c0 -22 -4 -40 -10 -40 -5 0 -10 18 -10 40 0 22 5
40 10 40 6 0 10 -18 10 -40z m290 -30 c0 -5 -4 -10 -10 -10 -5 0 -10 5 -10 10
0 6 5 10 10 10 6 0 10 -4 10 -10z m-230 -14 c0 -2 -7 -6 -15 -10 -8 -3 -15 -1
-15 4 0 6 7 10 15 10 8 0 15 -2 15 -4z m50 -6 c0 -5 -7 -7 -15 -4 -8 4 -15 8
-15 10 0 2 7 4 15 4 8 0 15 -4 15 -10z m-1760 -50 c0 -11 -7 -20 -15 -20 -8 0
-15 9 -15 20 0 11 7 20 15 20 8 0 15 -9 15 -20z m1600 10 c0 -5 -18 -10 -40
-10 -22 0 -40 5 -40 10 0 6 18 10 40 10 22 0 40 -4 40 -10z m130 -20 c0 -5 -4
-10 -10 -10 -5 0 -10 5 -10 10 0 6 5 10 10 10 6 0 10 -4 10 -10z m-290 -10 c0
-5 -6 -10 -14 -10 -8 0 -18 5 -21 10 -3 6 3 10 14 10 12 0 21 -4 21 -10z m171
1 c-9 -6 -11 -16 -6 -32 7 -21 6 -22 -9 -7 -19 20 -21 34 -3 41 20 9 33 7 18
-2z m-1077 -17 c9 -3 16 -12 16 -19 0 -16 -25 -26 -45 -19 -18 7 -20 30 -2 37
6 3 13 6 14 6 1 1 8 -2 17 -5z m720 0 c9 -3 16 -12 16 -19 0 -16 -25 -26 -45
-19 -18 7 -20 30 -2 37 6 3 13 6 14 6 1 1 8 -2 17 -5z m-906 -16 c-6 -18 -28
-21 -28 -4 0 9 7 16 16 16 9 0 14 -5 12 -12z m427 -18 c-5 -8 -11 -8 -17 -2
-6 6 -7 16 -3 22 5 8 11 8 17 2 6 -6 7 -16 3 -22z m272 8 c-3 -8 -6 -5 -6 6
-1 11 2 17 5 13 3 -3 4 -12 1 -19z m70 0 c-3 -8 -6 -5 -6 6 -1 11 2 17 5 13 3
-3 4 -12 1 -19z m663 2 c0 -5 -4 -10 -10 -10 -5 0 -10 5 -10 10 0 6 5 10 10
10 6 0 10 -4 10 -10z m-1050 -20 c8 -5 12 -11 10 -13 -10 -7 -100 5 -100 14 0
12 71 11 90 -1z m657 -16 c-3 -3 -12 -4 -19 -1 -8 3 -5 6 6 6 11 1 17 -2 13
-5z m50 0 c-3 -3 -12 -4 -19 -1 -8 3 -5 6 6 6 11 1 17 -2 13 -5z m-797 -14 c0
-5 -2 -10 -4 -10 -3 0 -8 5 -11 10 -3 6 -1 10 4 10 6 0 11 -4 11 -10z m180 6
c0 -3 -4 -8 -10 -11 -5 -3 -10 -1 -10 4 0 6 5 11 10 11 6 0 10 -2 10 -4z m60
-32 c0 -8 -5 -12 -10 -9 -6 4 -8 11 -5 16 9 14 15 11 15 -7z"/>
<path d="M3400 12790 c0 -5 4 -10 9 -10 6 0 13 5 16 10 3 6 -1 10 -9 10 -9 0
-16 -4 -16 -10z"/>
<path d="M3372 12748 c6 -18 28 -21 28 -4 0 9 -7 16 -16 16 -9 0 -14 -5 -12
-12z"/>
<path d="M3442 12747 c-9 -10 -4 -12 23 -9 19 2 35 8 35 13 0 14 -46 11 -58
-4z"/>
<path d="M3600 12746 c0 -9 7 -12 20 -9 11 3 17 9 14 14 -8 14 -34 10 -34 -5z"/>
<path d="M17993 12733 c0 -11 7 -20 14 -20 10 0 10 4 1 16 -7 9 -13 18 -15 20
-1 2 -1 -5 0 -16z"/>
<path d="M3280 12724 c0 -11 5 -14 16 -10 9 3 25 6 35 6 11 0 17 5 14 10 -11
17 -65 12 -65 -6z"/>
<path d="M18035 12730 c-3 -5 1 -10 11 -10 13 0 14 -3 5 -14 -10 -12 -8 -19 6
-33 23 -23 43 -19 43 8 0 21 -15 26 -24 7 -3 -7 -5 -4 -3 7 3 35 -23 59 -38
35z"/>
<path d="M3360 12706 c0 -14 57 -62 64 -55 2 2 6 18 8 34 3 17 3 24 1 18 -6
-18 -32 -16 -39 2 -8 19 -34 20 -34 1z"/>
<path d="M3200 12695 c0 -9 5 -15 11 -13 6 2 11 8 11 13 0 5 -5 11 -11 13 -6
2 -11 -4 -11 -13z"/>
<path d="M3267 12693 c-3 -3 -3 -11 0 -19 6 -15 -38 -30 -63 -20 -9 3 -21 3
-27 -1 -19 -12 24 -20 70 -13 56 9 68 21 44 42 -11 9 -22 14 -24 11z"/>
<path d="M3505 12665 c0 -14 3 -25 8 -25 4 0 7 11 7 25 0 14 -3 25 -7 25 -5 0
-8 -11 -8 -25z"/>
<path d="M17805 12680 c-3 -5 -1 -10 4 -10 6 0 11 5 11 10 0 6 -2 10 -4 10 -3
0 -8 -4 -11 -10z"/>
<path d="M3344 12645 c-17 -13 -17 -14 -2 -15 9 0 20 5 23 11 11 17 0 20 -21
4z"/>
<path d="M3430 12640 c-9 -6 -10 -10 -3 -10 6 0 15 5 18 10 8 12 4 12 -15 0z"/>
<path d="M18095 12640 c-13 -6 -15 -9 -5 -9 8 0 22 4 30 9 18 12 2 12 -25 0z"/>
<path d="M17920 12620 c0 -5 5 -10 11 -10 5 0 7 5 4 10 -3 6 -8 10 -11 10 -2
0 -4 -4 -4 -10z"/>
<path d="M17995 12619 c-9 -14 -2 -20 14 -10 8 6 9 11 3 15 -6 3 -14 1 -17 -5z"/>
<path d="M17860 12605 c0 -8 5 -15 10 -15 6 0 10 7 10 15 0 8 -4 15 -10 15 -5
0 -10 -7 -10 -15z"/>
<path d="M3520 12595 c0 -17 2 -18 24 -9 18 7 12 24 -10 24 -8 0 -14 -7 -14
-15z"/>
<path d="M18045 12596 c-17 -12 -16 -13 13 -12 18 0 31 5 29 10 -5 16 -22 17
-42 2z"/>
<path d="M3327 12593 c-10 -9 41 -33 71 -33 24 0 25 -1 19 -60 -5 -43 -3 -61
6 -67 8 -4 16 -16 20 -26 9 -24 36 -33 58 -18 15 9 19 8 19 -4 0 -16 10 -17
50 -6 23 7 23 8 -12 15 -21 4 -38 12 -38 18 0 9 -3 9 -12 0 -7 -7 -20 -12 -31
-12 -13 0 -18 6 -15 23 2 17 9 22 31 22 41 -1 33 12 -13 19 l-40 6 0 61 0 61
-40 -7 c-26 -4 -40 -3 -40 4 0 12 -23 15 -33 4z"/>
<path d="M17948 12583 c7 -3 16 -2 19 1 4 3 -2 6 -13 5 -11 0 -14 -3 -6 -6z"/>
<path d="M17990 12566 c0 -2 9 -6 20 -9 11 -3 20 -1 20 4 0 5 -9 9 -20 9 -11
0 -20 -2 -20 -4z"/>
<path d="M3745 12541 c-3 -5 -1 -12 5 -16 5 -3 10 1 10 9 0 18 -6 21 -15 7z"/>
<path d="M3597 12509 c7 -7 15 -10 18 -7 3 3 -2 9 -12 12 -14 6 -15 5 -6 -5z"/>
<path d="M18043 12500 c-1 -13 4 -20 17 -20 13 0 18 7 17 20 -1 11 -8 20 -17
20 -9 0 -16 -9 -17 -20z"/>
<path d="M3528 12483 c7 -3 16 -2 19 1 4 3 -2 6 -13 5 -11 0 -14 -3 -6 -6z"/>
<path d="M18160 12470 c0 -12 7 -20 16 -20 10 0 14 6 11 14 -4 9 1 17 11 19
10 3 5 5 -10 6 -22 1 -28 -4 -28 -19z"/>
<path d="M18075 12459 c-4 -6 -5 -12 -2 -15 2 -3 7 2 10 11 7 17 1 20 -8 4z"/>
<path d="M18128 12463 c7 -3 16 -2 19 1 4 3 -2 6 -13 5 -11 0 -14 -3 -6 -6z"/>
<path d="M3600 12430 c0 -5 9 -10 20 -10 11 0 20 5 20 10 0 6 -9 10 -20 10
-11 0 -20 -4 -20 -10z"/>
<path d="M18098 12423 c7 -3 16 -2 19 1 4 3 -2 6 -13 5 -11 0 -14 -3 -6 -6z"/>
<path d="M18098 12403 c7 -3 16 -2 19 1 4 3 -2 6 -13 5 -11 0 -14 -3 -6 -6z"/>
<path d="M18010 12390 c0 -5 5 -10 10 -10 6 0 10 5 10 10 0 6 -4 10 -10 10 -5
0 -10 -4 -10 -10z"/>
<path d="M3878 12383 c7 -3 16 -2 19 1 4 3 -2 6 -13 5 -11 0 -14 -3 -6 -6z"/>
<path d="M3650 12371 c0 -5 9 -11 20 -14 24 -6 27 8 4 17 -21 8 -24 8 -24 -3z"/>
<path d="M18137 12374 c-8 -8 1 -24 14 -24 5 0 9 7 9 15 0 15 -12 20 -23 9z"/>
<path d="M3578 12333 c7 -3 16 -2 19 1 4 3 -2 6 -13 5 -11 0 -14 -3 -6 -6z"/>
<path d="M3848 12323 c7 -3 16 -2 19 1 4 3 -2 6 -13 5 -11 0 -14 -3 -6 -6z"/>
<path d="M18077 12313 c-4 -3 -7 -11 -7 -17 0 -6 5 -5 12 2 6 6 9 14 7 17 -3
3 -9 2 -12 -2z"/>
<path d="M18146 12312 c6 -4 14 -14 17 -22 4 -10 6 -8 6 8 1 15 -5 22 -16 22
-11 0 -14 -3 -7 -8z"/>
<path d="M18190 12306 c0 -8 4 -17 9 -20 4 -3 11 -19 14 -36 4 -16 11 -30 17
-30 7 0 9 8 5 21 -5 15 -2 22 14 26 24 6 28 23 6 23 -8 0 -15 -4 -15 -10 0 -5
-7 -7 -16 -3 -9 3 -14 13 -11 24 3 12 0 19 -9 19 -8 0 -14 -6 -14 -14z"/>
<path d="M3670 12255 c0 -8 -8 -15 -17 -16 -14 0 -15 -2 -3 -6 8 -3 18 -11 22
-17 4 -6 8 4 8 22 0 17 -2 32 -5 32 -3 0 -5 -7 -5 -15z"/>
<path d="M18020 12230 c0 -5 5 -10 10 -10 6 0 10 5 10 10 0 6 -4 10 -10 10 -5
0 -10 -4 -10 -10z"/>
<path d="M18090 12211 c0 -6 5 -13 10 -16 6 -3 10 1 10 9 0 9 -4 16 -10 16 -5
0 -10 -4 -10 -9z"/>
<path d="M3920 12200 c0 -5 5 -10 10 -10 6 0 10 5 10 10 0 6 -4 10 -10 10 -5
0 -10 -4 -10 -10z"/>
<path d="M18153 12197 c-4 -7 -19 -21 -33 -31 l-25 -18 25 7 c14 4 27 12 28
16 2 5 10 9 18 9 16 0 19 16 5 25 -6 3 -13 -1 -18 -8z"/>
<path d="M3535 12187 c-4 -10 -5 -21 -1 -24 10 -10 18 4 13 24 -4 17 -4 17
-12 0z"/>
<path d="M18160 12151 c0 -10 40 -22 52 -15 18 11 6 24 -22 24 -16 0 -30 -4
-30 -9z"/>
<path d="M18230 12123 c-9 -2 -21 -12 -28 -23 -11 -18 -10 -20 13 -20 15 0 25
6 25 14 0 8 5 16 12 18 17 6 -3 15 -22 11z"/>
<path d="M3580 12065 c-14 -8 -33 -14 -42 -15 -27 0 -22 -14 10 -27 26 -11
118 -10 130 1 3 3 -12 6 -34 6 -21 0 -46 5 -54 10 -8 5 -10 10 -4 10 7 0 14 7
18 15 6 18 7 18 -24 0z"/>
<path d="M18080 12068 c0 -4 16 -8 35 -8 19 0 35 2 35 4 0 2 -16 6 -35 8 -19
2 -35 0 -35 -4z"/>
<path d="M18240 12060 c0 -5 5 -10 10 -10 6 0 10 5 10 10 0 6 -4 10 -10 10 -5
0 -10 -4 -10 -10z"/>
<path d="M3802 12024 c1 -9 9 -19 16 -22 9 -3 13 2 10 14 -1 9 -9 19 -16 22
-9 3 -13 -2 -10 -14z"/>
<path d="M3840 12010 c0 -5 5 -10 11 -10 5 0 7 5 4 10 -3 6 -8 10 -11 10 -2 0
-4 -4 -4 -10z"/>
<path d="M3535 11980 c-18 -20 -17 -20 29 -20 53 0 83 -12 108 -44 13 -16 20
-18 28 -10 14 14 -5 58 -21 48 -5 -3 -25 6 -44 21 -29 22 -35 23 -35 9 0 -16
-1 -16 -18 -1 -23 21 -25 21 -47 -3z"/>
<path d="M3670 11990 c20 -13 60 -13 60 0 0 6 -17 10 -37 10 -28 0 -34 -3 -23
-10z"/>
<path d="M3751 11971 c-9 -6 -11 -15 -6 -27 8 -18 8 -18 13 1 2 11 9 23 16 27
6 4 7 8 1 8 -5 0 -16 -4 -24 -9z"/>
<path d="M18222 11958 c-17 -17 -15 -38 3 -38 9 0 15 9 15 25 0 29 -1 30 -18
13z"/>
<path d="M18273 11963 c-7 -3 -13 -9 -13 -14 0 -12 37 -12 44 0 7 11 -14 20
-31 14z"/>
<path d="M3760 11905 c0 -8 2 -15 4 -15 2 0 6 7 10 15 3 8 1 15 -4 15 -6 0
-10 -7 -10 -15z"/>
<path d="M3787 11863 c-15 -14 -6 -23 23 -23 17 0 30 5 30 11 0 5 -5 7 -10 4
-6 -4 -17 -2 -24 4 -7 6 -16 8 -19 4z"/>
<path d="M18237 11855 c-4 -8 -2 -17 3 -20 6 -4 10 3 10 14 0 25 -6 27 -13 6z"/>
<path d="M18180 11850 c0 -5 5 -10 11 -10 5 0 7 5 4 10 -3 6 -8 10 -11 10 -2
0 -4 -4 -4 -10z"/>
<path d="M3958 11843 c7 -3 16 -2 19 1 4 3 -2 6 -13 5 -11 0 -14 -3 -6 -6z"/>
<path d="M18283 11814 c-7 -19 0 -26 21 -18 20 8 21 20 1 28 -9 3 -18 -1 -22
-10z"/>
<path d="M18225 11810 c-4 -6 -2 -17 4 -23 15 -15 25 -2 13 19 -7 12 -11 13
-17 4z"/>
<path d="M3752 11785 c-2 -27 13 -51 22 -36 4 6 3 11 -3 11 -5 0 -12 10 -14
23 -4 19 -4 19 -5 2z"/>
<path d="M3803 11793 c-7 -2 -13 -11 -13 -19 0 -14 12 -18 40 -14 20 3 21 5
14 24 -6 16 -18 19 -41 9z"/>
<path d="M18108 11733 c7 -3 16 -2 19 1 4 3 -2 6 -13 5 -11 0 -14 -3 -6 -6z"/>
<path d="M18200 11730 c0 -5 7 -10 16 -10 8 0 12 5 9 10 -3 6 -10 10 -16 10
-5 0 -9 -4 -9 -10z"/>
<path d="M18205 11679 c-4 -6 -4 -13 0 -17 3 -3 10 -1 14 6 4 7 16 10 27 6 16
-5 16 -4 4 5 -19 14 -37 14 -45 0z"/>
<path d="M4081 11664 c0 -11 3 -14 6 -6 3 7 2 16 -1 19 -3 4 -6 -2 -5 -13z"/>
<path d="M3745 11631 c-3 -5 -1 -12 5 -16 5 -3 10 1 10 9 0 18 -6 21 -15 7z"/>
<path d="M18291 11606 c-9 -11 -6 -14 19 -18 26 -4 50 6 39 16 -15 13 -48 14
-58 2z"/>
<path d="M4080 11589 c0 -5 5 -7 10 -4 6 3 10 8 10 11 0 2 -4 4 -10 4 -5 0
-10 -5 -10 -11z"/>
<path d="M4000 11560 c0 -5 14 -10 30 -10 17 0 30 5 30 10 0 6 -13 10 -30 10
-16 0 -30 -4 -30 -10z"/>
<path d="M18305 11560 c-4 -6 -4 -10 -1 -10 2 0 11 -3 20 -6 9 -3 16 -2 16 4
0 14 -28 23 -35 12z"/>
<path d="M3898 11513 c7 -3 16 -2 19 1 4 3 -2 6 -13 5 -11 0 -14 -3 -6 -6z"/>
<path d="M18330 11511 c0 -6 5 -13 10 -16 6 -3 10 1 10 9 0 9 -4 16 -10 16 -5
0 -10 -4 -10 -9z"/>
<path d="M3833 11493 c-15 -5 -17 -23 -4 -23 5 0 11 7 15 15 3 8 4 15 3 14 -1
0 -8 -3 -14 -6z"/>
<path d="M3896 11471 c-3 -5 1 -11 9 -15 9 -3 15 0 15 9 0 16 -16 20 -24 6z"/>
<path d="M18321 11458 c-1 -21 12 -30 33 -22 17 7 22 34 6 34 -5 0 -10 -7 -10
-15 0 -21 -18 -19 -23 3 -4 15 -5 15 -6 0z"/>
<path d="M3840 11421 c0 -13 7 -18 28 -18 15 0 35 -3 45 -7 11 -5 17 -4 17 3
0 7 -8 14 -17 17 -10 3 -26 10 -35 15 -27 14 -38 11 -38 -10z"/>
<path d="M3840 11375 c0 -8 34 -45 42 -45 14 0 8 23 -9 36 -18 14 -33 18 -33
9z"/>
<path d="M18338 11363 c7 -3 16 -2 19 1 4 3 -2 6 -13 5 -11 0 -14 -3 -6 -6z"/>
<path d="M4015 11341 c-8 -13 5 -61 16 -61 12 0 12 57 0 65 -5 3 -12 1 -16 -4z"/>
<path d="M3939 11323 c-11 -3 -15 -11 -12 -24 5 -19 33 -28 33 -10 0 5 3 16 6
25 6 16 3 17 -27 9z"/>
<path d="M4065 11290 c-3 -5 -1 -10 4 -10 6 0 11 5 11 10 0 6 -2 10 -4 10 -3
0 -8 -4 -11 -10z"/>
<path d="M4160 11281 c0 -5 9 -7 20 -4 11 3 20 7 20 9 0 2 -9 4 -20 4 -11 0
-20 -4 -20 -9z"/>
<path d="M3920 11260 c0 -5 14 -10 30 -10 17 0 30 5 30 10 0 6 -13 10 -30 10
-16 0 -30 -4 -30 -10z"/>
<path d="M3920 11220 c0 -5 14 -10 30 -10 17 0 30 5 30 10 0 6 -13 10 -30 10
-16 0 -30 -4 -30 -10z"/>
<path d="M4018 11198 c-10 -12 -17 -36 -17 -53 2 -27 2 -27 6 -5 3 13 14 30
24 38 18 13 27 42 12 42 -5 0 -16 -10 -25 -22z"/>
<path d="M18455 11201 c-11 -5 -36 -6 -55 -4 -32 4 -33 3 -17 -10 16 -13 15
-15 -13 -27 -29 -12 -37 -36 -12 -34 7 1 24 2 38 3 21 1 24 5 19 21 -5 14 -2
20 10 20 12 0 15 -6 10 -20 -5 -16 -2 -20 15 -20 17 0 20 4 15 20 -3 11 -2 20
4 20 5 0 9 9 8 20 -1 11 -1 20 -2 19 0 0 -9 -4 -20 -8z"/>
<path d="M3911 11163 c-1 -42 0 -43 32 -42 l32 1 -27 10 c-34 12 -37 28 -5 28
26 1 64 27 53 37 -4 4 -16 2 -26 -5 -25 -15 -47 -15 -53 1 -3 6 -6 -7 -6 -30z"/>
<path d="M4060 11140 c0 -14 -7 -20 -21 -20 -14 0 -19 -5 -17 -17 5 -25 29
-28 35 -4 3 12 9 21 14 21 5 0 9 9 9 20 0 11 -4 20 -10 20 -5 0 -10 -9 -10
-20z"/>
<path d="M18400 11110 c0 -5 4 -10 9 -10 6 0 13 5 16 10 3 6 -1 10 -9 10 -9 0
-16 -4 -16 -10z"/>
<path d="M3895 11100 c-13 -21 17 -40 61 -40 l43 0 4 -47 4 -48 -1 50 -1 50
-42 3 c-35 3 -43 7 -43 23 0 20 -15 26 -25 9z"/>
<path d="M18345 11070 c-3 -5 -2 -10 4 -10 5 0 13 5 16 10 3 6 2 10 -4 10 -5
0 -13 -4 -16 -10z"/>
<path d="M4073 11010 c0 -30 2 -43 4 -27 2 15 2 39 0 55 -2 15 -4 2 -4 -28z"/>
<path d="M3943 11029 c14 -8 22 -8 30 0 8 8 3 11 -18 11 -26 -1 -28 -2 -12
-11z"/>
<path d="M4030 10950 c0 -5 5 -10 10 -10 6 0 10 5 10 10 0 6 -4 10 -10 10 -5
0 -10 -4 -10 -10z"/>
<path d="M4130 10949 c0 -5 5 -7 10 -4 6 3 10 8 10 11 0 2 -4 4 -10 4 -5 0
-10 -5 -10 -11z"/>
<path d="M18420 10950 c0 -5 5 -10 10 -10 6 0 10 -7 10 -15 0 -16 16 -20 24
-6 3 5 -5 16 -19 25 -14 9 -25 12 -25 6z"/>
<path d="M4082 10920 c0 -14 2 -19 5 -12 2 6 2 18 0 25 -3 6 -5 1 -5 -13z"/>
<path d="M4190 10920 c0 -5 5 -10 10 -10 6 0 10 5 10 10 0 6 -4 10 -10 10 -5
0 -10 -4 -10 -10z"/>
<path d="M4130 10890 c0 -5 5 -10 11 -10 5 0 7 5 4 10 -3 6 -8 10 -11 10 -2 0
-4 -4 -4 -10z"/>
<path d="M18462 10888 c-7 -7 -12 -16 -12 -21 0 -5 7 -1 16 8 9 9 14 18 12 20
-2 3 -10 -1 -16 -7z"/>
<path d="M4080 10842 c0 -23 3 -42 8 -42 4 0 7 15 7 34 0 19 -3 38 -7 42 -5 4
-8 -11 -8 -34z"/>
<path d="M4168 10873 c7 -3 16 -2 19 1 4 3 -2 6 -13 5 -11 0 -14 -3 -6 -6z"/>
<path d="M4260 10870 c0 -5 4 -10 9 -10 6 0 13 5 16 10 3 6 -1 10 -9 10 -9 0
-16 -4 -16 -10z"/>
<path d="M18402 10860 c0 -14 2 -19 5 -12 2 6 2 18 0 25 -3 6 -5 1 -5 -13z"/>
<path d="M3983 10843 c-4 -10 -14 -23 -22 -30 -14 -11 -13 -12 9 -13 23 0 23
-1 7 -17 -15 -16 -18 -16 -36 1 -11 10 -26 16 -33 13 -10 -4 -10 -6 0 -6 6 -1
12 -8 12 -16 0 -11 16 -14 75 -14 74 0 104 12 65 24 -11 3 -29 3 -40 0 -21 -7
-24 -1 -20 48 2 31 -7 36 -17 10z"/>
<path d="M18340 10824 c0 -8 5 -12 10 -9 6 4 8 11 5 16 -9 14 -15 11 -15 -7z"/>
<path d="M4104 10747 c-8 -22 -1 -30 21 -25 14 3 14 5 1 23 -14 19 -15 19 -22
2z"/>
<path d="M18396 10724 c-8 -22 -4 -25 11 -9 7 8 9 16 4 19 -5 3 -12 -1 -15
-10z"/>
<path d="M18466 10715 c4 -8 8 -15 10 -15 2 0 4 7 4 15 0 8 -4 15 -10 15 -5 0
-7 -7 -4 -15z"/>
<path d="M4160 10705 c0 -8 5 -15 10 -15 6 0 10 7 10 15 0 8 -4 15 -10 15 -5
0 -10 -7 -10 -15z"/>
<path d="M18420 10695 c0 -8 7 -15 15 -15 8 0 15 4 15 9 0 5 -7 11 -15 15 -9
3 -15 0 -15 -9z"/>
<path d="M4248 10643 c7 -3 16 -2 19 1 4 3 -2 6 -13 5 -11 0 -14 -3 -6 -6z"/>
<path d="M4090 10620 c0 -5 7 -10 15 -10 8 0 15 5 15 10 0 6 -7 10 -15 10 -8
0 -15 -4 -15 -10z"/>
<path d="M18464 10588 c-4 -13 -12 -26 -18 -30 -6 -4 5 -8 24 -8 26 0 31 3 20
10 -12 8 -13 13 -2 30 10 17 10 20 -2 20 -8 0 -18 -10 -22 -22z"/>
<path d="M4090 10580 c0 -5 7 -10 15 -10 8 0 15 5 15 10 0 6 -7 10 -15 10 -8
0 -15 -4 -15 -10z"/>
<path d="M4154 10578 c2 -8 21 -14 47 -16 36 -2 41 0 26 9 -10 6 -29 8 -42 5
-13 -3 -26 -1 -28 4 -3 6 -4 5 -3 -2z"/>
<path d="M4088 10553 c6 -2 18 -2 25 0 6 3 1 5 -13 5 -14 0 -19 -2 -12 -5z"/>
<path d="M18550 10545 c0 -9 9 -15 21 -15 18 0 19 2 9 15 -7 8 -16 15 -21 15
-5 0 -9 -7 -9 -15z"/>
<path d="M4142 10483 c9 -2 18 -14 20 -25 3 -21 3 -21 22 -3 19 19 19 20 -5
26 -13 4 -31 7 -39 7 -11 0 -10 -2 2 -5z"/>
<path d="M4048 10473 c6 -2 18 -2 25 0 6 3 1 5 -13 5 -14 0 -19 -2 -12 -5z"/>
<path d="M18427 10413 c-15 -14 -6 -23 23 -23 22 0 28 4 24 15 -6 15 -35 20
-47 8z"/>
<path d="M4110 10360 c0 -29 -4 -40 -15 -40 -8 0 -15 7 -15 15 0 8 -7 15 -15
15 -8 0 -15 -7 -15 -15 0 -8 7 -15 15 -15 8 0 15 -4 15 -10 0 -6 10 -5 25 2
20 9 25 18 25 50 0 21 -4 38 -10 38 -5 0 -10 -18 -10 -40z"/>
<path d="M4160 10380 c0 -21 8 -24 34 -14 25 10 19 34 -9 34 -18 0 -25 -5 -25
-20z"/>
<path d="M18420 10370 c0 -5 7 -10 16 -10 8 0 12 5 9 10 -3 6 -10 10 -16 10
-5 0 -9 -4 -9 -10z"/>
<path d="M18460 10370 c0 -5 5 -10 10 -10 6 0 10 5 10 10 0 6 -4 10 -10 10 -5
0 -10 -4 -10 -10z"/>
<path d="M18240 10360 c0 -5 5 -10 10 -10 6 0 10 5 10 10 0 6 -4 10 -10 10 -5
0 -10 -4 -10 -10z"/>
<path d="M4231 10326 c-7 -8 -8 -17 -3 -20 6 -3 13 1 16 10 9 23 2 28 -13 10z"/>
<path d="M18408 10333 c7 -3 16 -2 19 1 4 3 -2 6 -13 5 -11 0 -14 -3 -6 -6z"/>
<path d="M4160 10309 c0 -5 5 -7 10 -4 6 3 10 8 10 11 0 2 -4 4 -10 4 -5 0
-10 -5 -10 -11z"/>
<path d="M18400 10274 c0 -8 5 -12 10 -9 6 4 8 11 5 16 -9 14 -15 11 -15 -7z"/>
<path d="M18468 10284 c-4 -5 0 -18 8 -29 15 -20 17 -12 5 19 -4 11 -10 15
-13 10z"/>
<path d="M4187 10254 c-8 -9 11 -44 24 -44 6 0 9 10 7 22 -3 22 -19 34 -31 22z"/>
<path d="M4260 10230 c0 -5 7 -10 15 -10 8 0 15 5 15 10 0 6 -7 10 -15 10 -8
0 -15 -4 -15 -10z"/>
<path d="M18388 10233 c6 -2 12 -11 12 -19 0 -8 5 -14 10 -14 6 0 10 4 10 8 0
12 -22 32 -34 31 -6 0 -5 -3 2 -6z"/>
<path d="M18358 10213 c7 -3 16 -2 19 1 4 3 -2 6 -13 5 -11 0 -14 -3 -6 -6z"/>
<path d="M4234 10176 c-3 -19 -4 -41 -1 -48 3 -7 6 -1 6 14 1 15 6 30 11 33
13 8 13 35 0 35 -5 0 -12 -16 -16 -34z"/>
<path d="M4035 10170 c-18 -8 -18 -9 5 -9 18 -1 21 -4 11 -10 -8 -5 -10 -14
-6 -21 4 -7 2 -16 -6 -21 -10 -6 -11 -11 -2 -20 16 -16 35 -1 28 22 -4 10 -2
19 3 19 5 0 10 11 10 25 0 26 -10 29 -43 15z"/>
<path d="M18440 10156 c0 -8 7 -17 16 -20 21 -8 26 -3 18 18 -8 20 -34 21 -34
2z"/>
<path d="M18488 10163 c6 -2 18 -2 25 0 6 3 1 5 -13 5 -14 0 -19 -2 -12 -5z"/>
<path d="M4090 10120 c0 -33 3 -40 20 -40 17 0 20 7 20 40 0 33 -3 40 -20 40
-17 0 -20 -7 -20 -40z"/>
<path d="M18430 10110 c0 -5 9 -10 20 -10 11 0 20 5 20 10 0 6 -9 10 -20 10
-11 0 -20 -4 -20 -10z"/>
<path d="M4060 10062 c0 -9 -13 -28 -30 -42 -29 -24 -30 -28 -30 -102 0 -65 3
-78 16 -78 14 0 15 10 9 80 l-7 80 31 0 c30 0 31 2 31 40 0 22 -4 40 -10 40
-5 0 -10 -8 -10 -18z"/>
<path d="M4200 10070 c0 -5 7 -10 15 -10 8 0 15 5 15 10 0 6 -7 10 -15 10 -8
0 -15 -4 -15 -10z"/>
<path d="M18400 10030 c0 -5 7 -10 15 -10 8 0 15 5 15 10 0 6 -7 10 -15 10 -8
0 -15 -4 -15 -10z"/>
<path d="M4160 10018 c0 -13 -8 -18 -30 -18 -34 0 -34 1 -20 -36 8 -21 14 -24
22 -16 7 7 24 12 39 12 15 0 31 5 35 11 5 8 -1 10 -20 7 -25 -5 -39 16 -16 24
6 2 6 8 0 18 -8 13 -10 12 -10 -2z"/>
<path d="M18480 9947 c0 -14 -5 -18 -20 -14 -11 3 -20 1 -20 -4 0 -9 36 -14
79 -10 13 1 27 -2 30 -7 3 -6 11 -4 19 4 11 12 6 14 -27 14 -22 0 -43 5 -46
10 -4 6 10 10 35 10 23 0 39 4 36 9 -3 4 -24 8 -46 8 -33 0 -40 -3 -40 -20z"/>
<path d="M4190 9920 c0 -12 17 -12 45 0 17 7 15 9 -12 9 -18 1 -33 -3 -33 -9z"/>
<path d="M4106 9906 c9 -24 51 -48 58 -33 3 8 8 7 16 -6 6 -9 15 -15 21 -12
13 9 11 25 -4 25 -7 0 -19 9 -27 20 -17 24 -73 29 -64 6z"/>
<path d="M4161 9834 c0 -11 3 -14 6 -6 3 7 2 16 -1 19 -3 4 -6 -2 -5 -13z"/>
<path d="M4234 9827 c3 -10 6 -26 6 -35 0 -12 3 -13 11 -5 8 8 7 17 -6 35 -12
16 -16 18 -11 5z"/>
<path d="M3840 9790 c0 -5 18 -10 40 -10 22 0 40 5 40 10 0 6 -18 10 -40 10
-22 0 -40 -4 -40 -10z"/>
<path d="M18465 9770 c-15 -7 -10 -9 23 -9 26 -1 41 3 37 9 -7 12 -32 12 -60
0z"/>
<path d="M3735 9750 c3 -6 14 -10 24 -10 10 0 21 -9 24 -20 6 -25 27 -26 34
-1 4 16 12 18 51 13 26 -3 50 -9 53 -15 4 -5 15 -7 25 -3 32 12 -3 30 -56 27
-27 -1 -50 2 -50 7 0 5 -25 9 -55 10 -34 1 -53 -2 -50 -8z"/>
<path d="M4000 9744 c0 -8 5 -12 10 -9 6 3 10 10 10 16 0 5 -4 9 -10 9 -5 0
-10 -7 -10 -16z"/>
<path d="M4120 9745 c0 -8 5 -15 10 -15 6 0 10 7 10 15 0 8 -4 15 -10 15 -5 0
-10 -7 -10 -15z"/>
<path d="M4030 9690 c0 -5 5 -10 11 -10 5 0 7 5 4 10 -3 6 -8 10 -11 10 -2 0
-4 -4 -4 -10z"/>
<path d="M4100 9690 c0 -5 5 -10 10 -10 6 0 10 5 10 10 0 6 -4 10 -10 10 -5 0
-10 -4 -10 -10z"/>
<path d="M18388 9673 c6 -2 18 -2 25 0 6 3 1 5 -13 5 -14 0 -19 -2 -12 -5z"/>
<path d="M3760 9655 c0 -9 6 -12 15 -9 8 4 15 7 15 9 0 2 -7 5 -15 9 -9 3 -15
0 -15 -9z"/>
<path d="M3822 9631 c-11 -7 -11 -9 2 -14 10 -4 16 -1 16 8 0 17 -1 17 -18 6z"/>
<path d="M3760 9591 c0 -5 -3 -18 -7 -28 -6 -17 -6 -17 10 -1 19 18 22 38 7
38 -5 0 -10 -4 -10 -9z"/>
<path d="M3580 9551 c0 -6 5 -13 10 -16 6 -3 10 1 10 9 0 9 -4 16 -10 16 -5 0
-10 -4 -10 -9z"/>
<path d="M3506 9521 c-14 -5 -16 -10 -8 -15 7 -4 19 0 28 8 17 17 11 19 -20 7z"/>
<path d="M3785 9510 c3 -5 10 -10 16 -10 5 0 9 5 9 10 0 6 -7 10 -16 10 -8 0
-12 -4 -9 -10z"/>
<path d="M3323 9473 c-23 -2 -47 -11 -53 -19 -11 -12 -2 -14 64 -14 58 0 76 3
76 14 0 13 -24 28 -38 24 -4 -1 -26 -3 -49 -5z"/>
<path d="M18400 9445 c0 -15 -8 -33 -17 -40 -15 -11 -15 -13 5 -24 12 -7 21
-8 21 -4 -6 23 15 63 32 63 10 0 19 5 19 10 0 6 -6 10 -14 10 -8 0 -21 3 -30
6 -12 5 -16 0 -16 -21z"/>
<path d="M18480 9450 c0 -5 5 -10 10 -10 6 0 10 5 10 10 0 6 -4 10 -10 10 -5
0 -10 -4 -10 -10z"/>
<path d="M3495 9430 c3 -5 10 -10 16 -10 5 0 9 5 9 10 0 6 -7 10 -16 10 -8 0
-12 -4 -9 -10z"/>
<path d="M3440 9400 c0 -13 5 -20 13 -17 6 2 12 10 12 17 0 7 -6 15 -12 18 -8
2 -13 -5 -13 -18z"/>
<path d="M18268 9413 c7 -3 16 -2 19 1 4 3 -2 6 -13 5 -11 0 -14 -3 -6 -6z"/>
<path d="M3495 9370 c-3 -5 1 -10 9 -10 9 0 16 5 16 10 0 6 -4 10 -9 10 -6 0
-13 -4 -16 -10z"/>
<path d="M3440 9351 c0 -5 9 -7 20 -4 11 3 20 7 20 9 0 2 -9 4 -20 4 -11 0
-20 -4 -20 -9z"/>
<path d="M18373 9347 c17 -7 27 -18 27 -31 0 -14 3 -17 11 -9 17 17 -11 53
-41 52 l-25 -1 28 -11z"/>
<path d="M3630 9320 c0 -5 5 -10 10 -10 6 0 10 5 10 10 0 6 -4 10 -10 10 -5 0
-10 -4 -10 -10z"/>
<path d="M18388 9283 c6 -2 12 -11 12 -19 0 -9 5 -12 10 -9 13 8 -6 35 -24 34
-7 0 -6 -2 2 -6z"/>
<path d="M3520 9255 c0 -10 7 -15 18 -13 21 4 19 22 -2 26 -10 2 -16 -3 -16
-13z"/>
<path d="M18320 9230 c0 -5 7 -10 16 -10 8 0 12 5 9 10 -3 6 -10 10 -16 10 -5
0 -9 -4 -9 -10z"/>
<path d="M3480 9215 c32 -18 40 -18 40 0 0 10 -10 15 -32 15 l-33 -1 25 -14z"/>
<path d="M18427 9224 c-13 -13 -7 -24 14 -24 11 0 19 5 17 12 -5 14 -22 21
-31 12z"/>
<path d="M3677 9189 c6 -22 23 -26 23 -5 0 8 -6 16 -14 19 -10 4 -12 0 -9 -14z"/>
<path d="M3780 9110 c0 -5 5 -10 10 -10 6 0 10 5 10 10 0 6 -4 10 -10 10 -5 0
-10 -4 -10 -10z"/>
<path d="M18320 9116 c0 -2 7 -6 15 -10 8 -3 15 -1 15 4 0 6 -7 10 -15 10 -8
0 -15 -2 -15 -4z"/>
<path d="M4065 9060 c-3 -5 -1 -10 4 -10 6 0 11 5 11 10 0 6 -2 10 -4 10 -3 0
-8 -4 -11 -10z"/>
<path d="M18210 9050 c0 -5 5 -10 11 -10 5 0 7 5 4 10 -3 6 -8 10 -11 10 -2 0
-4 -4 -4 -10z"/>
<path d="M18305 9050 c-19 -8 -19 -9 3 -9 12 -1 22 4 22 9 0 6 -1 10 -2 9 -2
0 -12 -4 -23 -9z"/>
<path d="M4145 8950 c3 -5 8 -10 11 -10 2 0 4 5 4 10 0 6 -5 10 -11 10 -5 0
-7 -4 -4 -10z"/>
<path d="M18270 8950 c0 -5 5 -10 10 -10 6 0 10 5 10 10 0 6 -4 10 -10 10 -5
0 -10 -4 -10 -10z"/>
<path d="M18162 8900 c0 -14 2 -19 5 -12 2 6 2 18 0 25 -3 6 -5 1 -5 -13z"/>
<path d="M18207 8906 c-4 -10 -5 -21 -2 -24 9 -9 17 6 13 25 -3 17 -4 17 -11
-1z"/>
<path d="M18310 8892 c0 -7 -10 -13 -22 -13 -19 -1 -20 -2 -4 -6 20 -5 44 12
33 24 -4 3 -7 1 -7 -5z"/>
<path d="M18270 8840 c0 -5 9 -10 20 -10 11 0 20 5 20 10 0 6 -9 10 -20 10
-11 0 -20 -4 -20 -10z"/>
<path d="M18216 8824 c-18 -18 -18 -19 -2 -22 22 -5 29 2 24 24 -3 16 -4 16
-22 -2z"/>
<path d="M4660 8770 c0 -5 5 -10 10 -10 6 0 10 5 10 10 0 6 -4 10 -10 10 -5 0
-10 -4 -10 -10z"/>
<path d="M18135 8700 c-3 -5 1 -10 9 -10 9 0 16 5 16 10 0 6 -4 10 -9 10 -6 0
-13 -4 -16 -10z"/>
<path d="M18190 8646 c0 -2 11 -6 25 -8 13 -3 22 -1 19 3 -5 9 -44 13 -44 5z"/>
<path d="M18140 8610 c0 -5 5 -10 10 -10 6 0 10 5 10 10 0 6 -4 10 -10 10 -5
0 -10 -4 -10 -10z"/>
<path d="M18217 8593 c-12 -11 -8 -23 8 -23 8 0 15 7 15 15 0 16 -12 20 -23 8z"/>
<path d="M18160 8570 c0 -5 -9 -10 -20 -10 -24 0 -27 -15 -4 -24 22 -9 24 -8
24 9 0 8 5 15 10 15 6 0 10 5 10 10 0 6 -4 10 -10 10 -5 0 -10 -4 -10 -10z"/>
<path d="M18065 8530 c-4 -6 -2 -17 4 -23 15 -15 25 -2 13 19 -7 12 -11 13
-17 4z"/>
<path d="M18000 8506 c0 -9 5 -16 10 -16 6 0 10 4 10 9 0 6 -4 13 -10 16 -5 3
-10 -1 -10 -9z"/>
<path d="M18143 8485 c-17 -19 -16 -35 2 -35 9 0 15 9 15 25 0 29 -1 29 -17
10z"/>
<path d="M5580 8440 c0 -5 5 -10 10 -10 6 0 10 5 10 10 0 6 -4 10 -10 10 -5 0
-10 -4 -10 -10z"/>
<path d="M18082 8373 c1 -50 2 -52 5 -15 2 23 8 42 14 42 5 0 9 7 9 15 0 8 -7
15 -15 15 -12 0 -15 -12 -13 -57z"/>
<path d="M17920 8360 c0 -5 5 -10 11 -10 5 0 7 5 4 10 -3 6 -8 10 -11 10 -2 0
-4 -4 -4 -10z"/>
<path d="M17970 8326 c0 -2 7 -6 15 -10 8 -3 15 -1 15 4 0 6 -7 10 -15 10 -8
0 -15 -2 -15 -4z"/>
<path d="M17785 8290 c3 -5 11 -10 16 -10 6 0 7 5 4 10 -3 6 -11 10 -16 10 -6
0 -7 -4 -4 -10z"/>
<path d="M18020 8271 c-15 -28 -13 -31 20 -31 17 0 30 3 30 6 0 12 -21 44 -30
44 -5 0 -14 -9 -20 -19z"/>
<path d="M17910 8251 c0 -6 4 -13 10 -16 6 -3 7 1 4 9 -7 18 -14 21 -14 7z"/>
<path d="M5660 8210 c0 -5 5 -10 10 -10 6 0 10 5 10 10 0 6 -4 10 -10 10 -5 0
-10 -4 -10 -10z"/>
<path d="M17857 8166 c-17 -13 -14 -14 25 -11 55 3 56 3 38 15 -21 13 -42 12
-63 -4z"/>
<path d="M17940 8154 c0 -4 8 -13 18 -20 16 -13 16 -15 0 -28 -22 -16 -23 -26
-2 -26 18 0 44 23 44 40 0 17 -26 40 -44 40 -9 0 -16 -3 -16 -6z"/>
<path d="M17800 8120 c0 -5 5 -10 10 -10 6 0 10 5 10 10 0 6 -4 10 -10 10 -5
0 -10 -4 -10 -10z"/>
<path d="M17860 8115 c-11 -13 -8 -15 20 -15 28 0 31 2 20 15 -7 8 -16 15 -20
15 -4 0 -13 -7 -20 -15z"/>
<path d="M17700 8090 c0 -5 5 -10 10 -10 6 0 10 5 10 10 0 6 -4 10 -10 10 -5
0 -10 -4 -10 -10z"/>
<path d="M17740 8085 c-6 -8 -10 -20 -7 -27 4 -9 6 -7 6 4 1 9 9 18 19 20 11
2 13 6 6 11 -7 4 -17 0 -24 -8z"/>
<path d="M17859 8027 c-10 -21 -15 -23 -60 -17 -56 7 -64 4 -43 -17 10 -10 18
-12 27 -5 7 6 35 10 62 10 28 -1 42 -3 33 -5 -10 -3 -18 -13 -18 -24 0 -12
-11 -24 -27 -30 -35 -14 -14 -23 33 -15 23 5 34 12 34 24 0 10 5 23 11 29 8 8
6 19 -5 42 -20 37 -33 39 -47 8z"/>
<path d="M17606 7995 c4 -9 11 -14 16 -13 15 5 11 23 -6 26 -11 2 -14 -2 -10
-13z"/>
<path d="M17681 7968 c0 -9 -4 -23 -7 -32 -4 -12 2 -14 30 -11 20 2 33 -1 30
-6 -3 -5 2 -9 10 -9 19 0 20 9 6 44 -11 31 -30 34 -30 6 0 -27 -28 -25 -33 3
-2 13 -5 15 -6 5z"/>
<path d="M17642 7959 c2 -6 8 -10 13 -10 5 0 11 4 13 10 2 6 -4 11 -13 11 -9
0 -15 -5 -13 -11z"/>
<path d="M6320 7919 c0 -5 5 -7 10 -4 6 3 10 8 10 11 0 2 -4 4 -10 4 -5 0 -10
-5 -10 -11z"/>
<path d="M17590 7860 c-17 -11 -8 -23 14 -18 9 2 12 8 8 15 -5 8 -13 9 -22 3z"/>
<path d="M17600 7800 c0 -13 5 -20 13 -17 6 2 12 10 12 17 0 7 -6 15 -12 18
-8 2 -13 -5 -13 -18z"/>
<path d="M17555 7750 c3 -5 15 -10 26 -10 10 0 19 5 19 10 0 6 -12 10 -26 10
-14 0 -23 -4 -19 -10z"/>
<path d="M17417 7690 c-4 -16 -1 -20 11 -18 19 4 23 29 6 35 -6 2 -14 -6 -17
-17z"/>
<path d="M17511 7683 c-1 -20 1 -21 32 -11 44 15 49 22 10 15 -20 -4 -33 -2
-37 6 -2 7 -5 2 -5 -10z"/>
<path d="M17280 7630 c0 -5 18 -10 40 -10 22 0 40 5 40 10 0 6 -18 10 -40 10
-22 0 -40 -4 -40 -10z"/>
<path d="M17428 7612 c-22 -4 -25 -71 -6 -105 12 -20 14 -15 19 43 3 36 5 65
5 66 -1 0 -9 -1 -18 -4z"/>
<path d="M17250 7600 l-25 -8 28 -1 c15 -1 27 4 27 9 0 6 -1 10 -2 9 -2 -1
-14 -5 -28 -9z"/>
<path d="M16990 7580 c0 -5 5 -10 10 -10 6 0 10 5 10 10 0 6 -4 10 -10 10 -5
0 -10 -4 -10 -10z"/>
<path d="M17200 7556 c0 -9 5 -16 10 -16 6 0 10 4 10 9 0 6 -4 13 -10 16 -5 3
-10 -1 -10 -9z"/>
<path d="M17264 7549 c-7 -12 13 -29 35 -29 11 0 10 5 -4 20 -21 23 -22 23
-31 9z"/>
<path d="M17346 7480 c-7 -47 -22 -52 -31 -10 -7 34 -20 32 -27 -3 -6 -33 24
-52 52 -35 14 9 20 24 20 50 0 49 -6 48 -14 -2z"/>
<path d="M16860 7450 c-13 -8 -12 -10 3 -10 9 0 17 5 17 10 0 12 -1 12 -20 0z"/>
<path d="M16945 7430 c3 -5 8 -10 11 -10 2 0 4 5 4 10 0 6 -5 10 -11 10 -5 0
-7 -4 -4 -10z"/>
<path d="M17040 7427 c0 -15 37 -40 44 -29 3 5 -4 16 -15 25 -23 20 -29 21
-29 4z"/>
<path d="M16918 7363 c7 -3 16 -2 19 1 4 3 -2 6 -13 5 -11 0 -14 -3 -6 -6z"/>
<path d="M16902 7311 c-11 -7 -11 -9 2 -14 9 -4 23 -4 32 0 13 5 13 7 2 14 -7
5 -15 9 -18 9 -3 0 -11 -4 -18 -9z"/>
<path d="M17040 7289 c0 -18 4 -28 10 -24 6 4 7 11 4 17 -4 7 6 9 30 6 30 -3
36 -1 36 14 0 14 -8 18 -40 18 -38 0 -40 -2 -40 -31z"/>
<path d="M16960 7295 c0 -8 7 -15 15 -15 9 0 12 6 9 15 -4 8 -10 15 -15 15 -5
0 -9 -7 -9 -15z"/>
<path d="M16835 7270 c3 -5 8 -10 11 -10 2 0 4 5 4 10 0 6 -5 10 -11 10 -5 0
-7 -4 -4 -10z"/>
<path d="M16736 7165 c-7 -36 -2 -55 15 -55 5 0 9 20 9 45 0 54 -15 60 -24 10z"/>
<path d="M16960 7190 c0 -5 4 -10 9 -10 6 0 13 5 16 10 3 6 -1 10 -9 10 -9 0
-16 -4 -16 -10z"/>
<path d="M16350 7160 c0 -5 7 -10 15 -10 8 0 15 5 15 10 0 6 -7 10 -15 10 -8
0 -15 -4 -15 -10z"/>
<path d="M16560 7122 c0 -16 40 -26 53 -13 8 8 7 11 -5 11 -9 0 -23 3 -32 6
-9 3 -16 1 -16 -4z"/>
<path d="M16697 7103 c4 -10 12 -27 20 -39 7 -11 10 -24 6 -27 -3 -4 -1 -7 5
-7 6 0 18 7 27 16 21 21 1 51 -21 33 -11 -9 -14 -6 -14 15 0 16 -6 26 -15 26
-9 0 -12 -6 -8 -17z"/>
<path d="M16470 7081 c0 -6 5 -13 10 -16 6 -3 10 1 10 9 0 9 -4 16 -10 16 -5
0 -10 -4 -10 -9z"/>
<path d="M16551 7074 c0 -11 3 -14 6 -6 3 7 2 16 -1 19 -3 4 -6 -2 -5 -13z"/>
<path d="M16633 7074 c-20 -21 -15 -34 11 -34 19 0 23 4 19 20 -7 27 -15 31
-30 14z"/>
<path d="M16145 7060 c3 -5 8 -10 11 -10 2 0 4 5 4 10 0 6 -5 10 -11 10 -5 0
-7 -4 -4 -10z"/>
<path d="M8150 7040 c0 -13 18 -22 24 -11 3 5 -1 11 -9 15 -8 3 -15 1 -15 -4z"/>
<path d="M16265 7040 c-3 -5 1 -10 9 -10 8 0 18 5 21 10 3 6 -1 10 -9 10 -8 0
-18 -4 -21 -10z"/>
<path d="M16388 7042 c-13 -2 -18 -13 -18 -42 0 -30 4 -39 22 -43 12 -4 24 -4
27 -2 2 3 -1 5 -7 5 -7 0 -12 11 -12 25 0 16 6 25 15 25 18 0 20 26 3 32 -7 2
-21 3 -30 0z"/>
<path d="M16158 7033 c7 -3 16 -2 19 1 4 3 -2 6 -13 5 -11 0 -14 -3 -6 -6z"/>
<path d="M16560 6990 c0 -40 -3 -50 -17 -50 -15 0 -14 -2 2 -14 28 -20 37 -10
30 34 -6 33 -3 41 14 52 28 17 26 28 -4 28 -23 0 -25 -3 -25 -50z"/>
<path d="M16246 6991 c-3 -5 0 -11 7 -13 17 -7 38 2 31 13 -7 12 -31 12 -38 0z"/>
<path d="M16136 6921 c-3 -4 1 -17 9 -27 14 -18 14 -18 15 9 0 26 -13 36 -24
18z"/>
<path d="M16080 6890 c0 -5 5 -10 11 -10 5 0 7 5 4 10 -3 6 -8 10 -11 10 -2 0
-4 -4 -4 -10z"/>
<path d="M16256 6853 c13 -53 23 -60 24 -15 0 31 -4 42 -15 42 -12 0 -14 -7
-9 -27z"/>
<path d="M16102 6861 c-11 -7 -11 -9 2 -14 9 -4 23 -4 32 0 13 5 13 7 2 14 -7
5 -15 9 -18 9 -3 0 -11 -4 -18 -9z"/>
<path d="M15978 6823 c7 -3 16 -2 19 1 4 3 -2 6 -13 5 -11 0 -14 -3 -6 -6z"/>
<path d="M16196 6815 c-4 -11 2 -15 19 -15 30 0 32 6 6 19 -14 8 -20 7 -25 -4z"/>
<path d="M16133 6785 c-3 -9 -3 -19 0 -22 12 -11 80 -8 84 5 3 8 -6 12 -26 12
-17 0 -31 5 -31 10 0 16 -20 12 -27 -5z"/>
<path d="M16014 6736 c-23 -18 -15 -29 14 -19 14 5 18 13 14 21 -7 9 -12 9
-28 -2z"/>
<path d="M15940 6710 c0 -5 5 -10 10 -10 6 0 10 5 10 10 0 6 -4 10 -10 10 -5
0 -10 -4 -10 -10z"/>
<path d="M16066 6701 c-4 -7 -5 -15 -2 -18 9 -9 19 4 14 18 -4 11 -6 11 -12 0z"/>
<path d="M15967 6673 c-4 -3 -7 -13 -7 -22 1 -13 3 -13 11 2 11 19 8 33 -4 20z"/>
<path d="M16004 6668 c3 -7 9 -21 12 -30 7 -21 17 -22 43 -6 18 11 18 12 -4
30 -27 21 -60 24 -51 6z"/>
<path d="M15920 6650 c0 -5 5 -10 11 -10 5 0 7 5 4 10 -3 6 -8 10 -11 10 -2 0
-4 -4 -4 -10z"/>
<path d="M16001 6604 c0 -11 3 -14 6 -6 3 7 2 16 -1 19 -3 4 -6 -2 -5 -13z"/>
<path d="M10250 6600 c0 -5 5 -10 10 -10 6 0 10 5 10 10 0 6 -4 10 -10 10 -5
0 -10 -4 -10 -10z"/>
<path d="M15837 6562 c1 -8 3 -18 3 -23 0 -5 11 -9 25 -9 18 0 25 -5 25 -19 0
-22 19 -38 29 -25 8 13 74 12 83 -1 4 -5 7 10 7 35 -1 34 -3 39 -8 20 -5 -21
-12 -25 -44 -25 -32 0 -37 3 -37 23 0 19 -5 22 -39 22 -22 0 -41 3 -44 8 -2 4
-2 1 0 -6z"/>
<path d="M15753 6520 c0 -25 2 -35 4 -22 2 12 2 32 0 45 -2 12 -4 2 -4 -23z"/>
<path d="M15943 6549 c11 -7 23 -7 35 0 14 9 11 10 -18 10 -29 0 -32 -1 -17
-10z"/>
<path d="M10240 6534 c0 -8 5 -12 10 -9 6 4 8 11 5 16 -9 14 -15 11 -15 -7z"/>
<path d="M10181 6464 c0 -11 3 -14 6 -6 3 7 2 16 -1 19 -3 4 -6 -2 -5 -13z"/>
<path d="M15840 6440 c0 -5 5 -10 10 -10 6 0 10 5 10 10 0 6 -4 10 -10 10 -5
0 -10 -4 -10 -10z"/>
<path d="M15735 6430 c-3 -5 1 -10 9 -10 9 0 16 5 16 10 0 6 -4 10 -9 10 -6 0
-13 -4 -16 -10z"/>
<path d="M15680 6390 c0 -5 7 -7 15 -4 8 4 15 8 15 10 0 2 -7 4 -15 4 -8 0
-15 -4 -15 -10z"/>
<path d="M15760 6380 c0 -11 -7 -23 -16 -27 -15 -6 -15 -8 2 -20 32 -23 44
-16 44 27 0 29 -4 40 -15 40 -8 0 -15 -9 -15 -20z"/>
<path d="M15906 6373 c10 -40 14 -41 14 -5 0 18 -5 32 -10 32 -6 0 -8 -11 -4
-27z"/>
<path d="M15665 6230 c3 -5 8 -10 11 -10 2 0 4 5 4 10 0 6 -5 10 -11 10 -5 0
-7 -4 -4 -10z"/>
<path d="M15665 6171 c-3 -6 -1 -11 4 -11 6 0 11 -9 11 -20 0 -11 5 -20 10
-20 14 0 12 22 -4 43 -9 12 -16 14 -21 8z"/>
<path d="M15590 6115 c-7 -61 6 -77 57 -73 29 2 38 8 40 23 2 11 0 14 -3 8 -3
-7 -23 -13 -44 -13 l-39 0 -3 53 -3 52 -5 -50z"/>
<path d="M15520 6053 c0 -13 5 -23 10 -23 13 0 13 11 0 30 -8 12 -10 11 -10
-7z"/>
<path d="M15440 6040 c0 -5 9 -10 20 -10 11 0 20 5 20 10 0 6 -9 10 -20 10
-11 0 -20 -4 -20 -10z"/>
<path d="M15265 6010 c-3 -5 -1 -10 4 -10 6 0 11 5 11 10 0 6 -2 10 -4 10 -3
0 -8 -4 -11 -10z"/>
<path d="M15200 5989 c0 -5 5 -7 10 -4 6 3 10 8 10 11 0 2 -4 4 -10 4 -5 0
-10 -5 -10 -11z"/>
<path d="M15420 5980 c-12 -7 -12 -12 -3 -21 15 -15 26 -7 21 15 -2 11 -7 13
-18 6z"/>
<path d="M15265 5970 c-3 -5 -1 -10 4 -10 6 0 11 5 11 10 0 6 -2 10 -4 10 -3
0 -8 -4 -11 -10z"/>
<path d="M15360 5950 c0 -5 5 -10 10 -10 6 0 10 5 10 10 0 6 -4 10 -10 10 -5
0 -10 -4 -10 -10z"/>
<path d="M15225 5930 c-3 -5 -1 -10 4 -10 6 0 11 5 11 10 0 6 -2 10 -4 10 -3
0 -8 -4 -11 -10z"/>
<path d="M15415 5920 c-19 -7 -19 -8 -2 -15 19 -8 31 -2 26 13 -2 5 -13 6 -24
2z"/>
<path d="M15120 5880 c0 -19 3 -21 12 -12 9 9 9 15 0 24 -9 9 -12 7 -12 -12z"/>
<path d="M11012 5870 c0 -14 2 -19 5 -12 2 6 2 18 0 25 -3 6 -5 1 -5 -13z"/>
<path d="M15200 5855 c0 -8 5 -15 10 -15 6 0 10 7 10 15 0 8 -4 15 -10 15 -5
0 -10 -7 -10 -15z"/>
<path d="M14980 5800 c0 -30 4 -40 16 -40 11 0 14 5 10 16 -3 9 -6 27 -6 40 0
13 -4 24 -10 24 -5 0 -10 -18 -10 -40z"/>
<path d="M15088 5833 c6 -2 18 -2 25 0 6 3 1 5 -13 5 -14 0 -19 -2 -12 -5z"/>
<path d="M15024 5794 c-4 -14 -2 -30 5 -37 8 -8 11 -1 11 26 0 43 -7 48 -16
11z"/>
<path d="M14670 5750 c0 -5 5 -10 10 -10 6 0 10 5 10 10 0 6 -4 10 -10 10 -5
0 -10 -4 -10 -10z"/>
<path d="M14870 5749 c0 -5 5 -7 10 -4 6 3 10 8 10 11 0 2 -4 4 -10 4 -5 0
-10 -5 -10 -11z"/>
<path d="M14640 5693 c0 -8 -13 -13 -32 -13 -30 0 -31 -1 -16 -16 13 -14 19
-14 41 -2 20 10 24 17 17 28 -7 10 -10 11 -10 3z"/>
<path d="M14820 5690 c0 -5 5 -10 10 -10 6 0 10 5 10 10 0 6 -4 10 -10 10 -5
0 -10 -4 -10 -10z"/>
<path d="M14483 5560 c0 -25 2 -35 4 -22 2 12 2 32 0 45 -2 12 -4 2 -4 -23z"/>
<path d="M13861 5534 c0 -11 3 -14 6 -6 3 7 2 16 -1 19 -3 4 -6 -2 -5 -13z"/>
<path d="M13935 5530 c-3 -5 1 -10 10 -10 9 0 13 5 10 10 -3 6 -8 10 -10 10
-2 0 -7 -4 -10 -10z"/>
<path d="M13990 5531 c0 -6 4 -13 10 -16 6 -3 7 1 4 9 -7 18 -14 21 -14 7z"/>
<path d="M14270 5505 c0 -8 5 -15 10 -15 6 0 10 7 10 15 0 8 -4 15 -10 15 -5
0 -10 -7 -10 -15z"/>
<path d="M14382 5462 c-7 -20 12 -28 58 -24 57 6 53 29 -6 34 -33 2 -48 -1
-52 -10z"/>
<path d="M12820 5450 c0 -5 5 -10 11 -10 5 0 7 5 4 10 -3 6 -8 10 -11 10 -2 0
-4 -4 -4 -10z"/>
<path d="M13600 5450 c0 -5 5 -10 11 -10 5 0 7 5 4 10 -3 6 -8 10 -11 10 -2 0
-4 -4 -4 -10z"/>
<path d="M13790 5440 c0 -5 5 -10 10 -10 6 0 10 5 10 10 0 6 -4 10 -10 10 -5
0 -10 -4 -10 -10z"/>
<path d="M12533 5423 c-30 -6 -29 -20 2 -25 19 -4 25 -1 25 13 0 11 -1 18 -2
18 -2 -1 -13 -4 -25 -6z"/>
<path d="M13230 5370 c0 -5 5 -10 10 -10 6 0 10 5 10 10 0 6 -4 10 -10 10 -5
0 -10 -4 -10 -10z"/>
<path d="M13346 5345 c4 -8 8 -15 10 -15 2 0 4 7 4 15 0 8 -4 15 -10 15 -5 0
-7 -7 -4 -15z"/>
<path d="M13513 5320 c0 -25 2 -35 4 -22 2 12 2 32 0 45 -2 12 -4 2 -4 -23z"/>
<path d="M13680 5345 c0 -8 7 -15 15 -15 8 0 15 7 15 15 0 8 -7 15 -15 15 -8
0 -15 -7 -15 -15z"/>
<path d="M14028 5353 c7 -3 16 -2 19 1 4 3 -2 6 -13 5 -11 0 -14 -3 -6 -6z"/>
<path d="M13280 5295 c0 -8 4 -15 10 -15 5 0 7 7 4 15 -4 8 -8 15 -10 15 -2 0
-4 -7 -4 -15z"/>
<path d="M13360 5300 c0 -5 18 -10 40 -10 22 0 40 5 40 10 0 6 -18 10 -40 10
-22 0 -40 -4 -40 -10z"/>
<path d="M13570 5290 c0 -5 7 -10 15 -10 8 0 15 5 15 10 0 6 -7 10 -15 10 -8
0 -15 -4 -15 -10z"/>
</g>
</svg>
